<svg width="171" height="57" viewBox="0 0 171 57" fill="none" xmlns="http://www.w3.org/2000/svg">
<rect x="0.5" y="0.632812" width="170" height="55" rx="7.5" fill="#13151B"/>
<rect x="0.5" y="0.632812" width="170" height="55" rx="7.5" stroke="#303443"/>
<path d="M82.0555 26.6445C81.5714 26.7421 81.1236 26.7909 80.1433 26.7909C78.7272 26.7909 77.1055 26.0224 77.1055 23.2171V22.8267C77.1055 19.9848 78.7272 19.2529 80.1433 19.2529C80.8694 19.2529 81.5714 19.3627 82.0676 19.4359C82.1765 19.4481 82.2492 19.4847 82.2492 19.5823V20.1677C82.2492 20.2409 82.225 20.2897 82.116 20.2897C82.1039 20.2897 82.0918 20.2897 82.0797 20.2897C81.6682 20.2531 80.821 20.1799 80.1554 20.1799C79.0298 20.1799 78.1584 20.8386 78.1584 22.8023V23.1927C78.1584 25.132 79.0298 25.8151 80.1554 25.8151C80.8089 25.8151 81.6319 25.7541 82.0555 25.7175C82.0676 25.7175 82.0918 25.7175 82.1039 25.7175C82.225 25.7175 82.2855 25.7785 82.2855 25.9005V26.3762C82.2855 26.5591 82.1887 26.6201 82.0555 26.6445Z" fill="#44BE4C"/>
<path d="M90.6137 26.7177H89.936C89.827 26.7177 89.7665 26.6445 89.7423 26.5713L88.9919 24.2782H86.0146L85.2764 26.5713C85.2522 26.6567 85.1674 26.7177 85.0706 26.7177H84.3929C84.2839 26.7177 84.1992 26.6445 84.1992 26.5591C84.1992 26.5347 84.1992 26.5103 84.2113 26.4859L86.3414 19.9848C86.5351 19.3749 87.0797 19.2285 87.5154 19.2285C87.939 19.2285 88.4836 19.3627 88.6773 19.9726L90.8074 26.4859C90.8195 26.5103 90.8195 26.5347 90.8195 26.5591C90.8074 26.6445 90.7468 26.7177 90.6137 26.7177ZM87.7332 20.1921C87.6969 20.0823 87.6243 20.0091 87.5154 20.0091C87.3944 20.0091 87.3217 20.0823 87.2854 20.1921L86.2567 23.4244H88.762L87.7332 20.1921Z" fill="#44BE4C"/>
<path d="M99.6769 26.7178H99.0475C98.9386 26.7178 98.8418 26.608 98.8418 26.486V19.5579C98.8418 19.4482 98.9265 19.3384 99.0475 19.3384H99.6769C99.7858 19.3384 99.8826 19.436 99.8826 19.5579V26.486C99.8826 26.608 99.7979 26.7178 99.6769 26.7178Z" fill="#44BE4C"/>
<path d="M107.788 26.7178H107.073C106.892 26.7178 106.759 26.6446 106.71 26.5348L103.164 20.9606C103.152 20.9362 103.14 20.924 103.128 20.924C103.116 20.924 103.116 20.9362 103.116 20.9606V26.4982C103.116 26.608 103.019 26.7178 102.91 26.7178H102.317C102.208 26.7178 102.111 26.6934 102.111 26.5836V19.6677C102.111 19.4847 102.257 19.3384 102.45 19.3384H103.08C103.406 19.3384 103.455 19.3994 103.552 19.5701L107.073 25.1077L107.098 25.1443C107.11 25.1443 107.11 25.1199 107.11 25.1077V19.5579C107.11 19.4482 107.207 19.3384 107.316 19.3384H107.921C108.042 19.3384 108.126 19.4482 108.126 19.5579V26.3762C108.114 26.5714 107.969 26.7178 107.788 26.7178Z" fill="#44BE4C"/>
<path d="M113.282 26.8031C111.479 26.8031 110.172 25.7419 110.172 23.1683V22.8999C110.172 20.3263 111.479 19.2651 113.282 19.2651C115.086 19.2651 116.381 20.3263 116.381 22.8999V23.1683C116.381 25.7297 115.086 26.8031 113.282 26.8031ZM115.328 22.8999C115.328 20.9606 114.541 20.2165 113.282 20.2165C112.036 20.2165 111.225 20.9606 111.225 22.8999V23.1683C111.225 25.1076 112.012 25.8517 113.282 25.8517C114.529 25.8517 115.328 25.1076 115.328 23.1683V22.8999Z" fill="#44BE4C"/>
<path d="M75.0237 25.559C74.0555 25.2663 71.405 24.876 69.0328 24.876C66.116 24.876 61.8438 25.8884 61.8438 32.3651V34.2435C61.8438 40.6105 66.0313 41.7327 68.815 41.7327C70.8725 41.7327 73.6803 41.4033 75.0237 41.1106C75.4231 41.0252 75.4836 41.0008 75.4836 40.6227V32.8774C75.4836 32.6213 75.2779 32.4139 75.0237 32.4139H73.4988H71.4292H69.5411C69.2991 32.4139 69.1054 32.5969 69.1054 32.8286V34.768C69.1054 34.9997 69.2991 35.1827 69.5411 35.1827H70.8603C70.933 35.1827 70.9935 35.2437 70.9935 35.3169V37.0367C70.9935 37.1343 70.9209 37.2197 70.824 37.2197C70.3157 37.2562 68.9965 37.2684 68.8271 37.2684C68.1735 37.2684 67.0964 37.1831 67.0964 34.2923V32.3651C67.0964 29.9379 68.4398 29.4012 71.2476 29.4744C72.6032 29.511 74.467 29.6085 75.1326 29.6939C75.4352 29.7427 75.5078 29.6329 75.5078 29.2914V26.0469C75.4836 25.7542 75.4715 25.6932 75.0237 25.559Z" fill="white"/>
<path d="M88.9292 27.9131H85.3951C85.2015 27.9131 85.032 28.0717 85.032 28.279V36.2682C85.032 37.7075 84.1606 38.0247 83.2166 38.0247C82.2726 38.0247 81.4012 37.7197 81.4012 36.2682V28.279C81.4012 28.0838 81.2318 27.9131 81.0381 27.9131H77.5041C77.3104 27.9131 77.1289 28.0717 77.1289 28.279V36.2682C77.1289 40.9642 80.4088 41.6838 83.2287 41.6838C86.0366 41.6838 89.3285 40.9764 89.3285 36.2682V28.279C89.3164 28.0717 89.1349 27.9131 88.9292 27.9131Z" fill="white"/>
<path d="M115.847 27.9131H112.313C112.119 27.9131 111.95 28.0717 111.95 28.279V36.2682C111.95 37.7075 111.079 38.0247 110.135 38.0247C109.191 38.0247 108.319 37.7197 108.319 36.2682V28.279C108.319 28.0838 108.15 27.9131 107.956 27.9131H104.422C104.228 27.9131 104.047 28.0717 104.047 28.279V36.2682C104.047 40.9642 107.327 41.6838 110.147 41.6838C112.955 41.6838 116.247 40.9764 116.247 36.2682V28.279C116.222 28.0717 116.041 27.9131 115.847 27.9131Z" fill="white"/>
<path d="M100.368 36.1949C101.348 35.7558 102.449 34.6093 102.449 32.6455V32.2796C102.449 28.8277 100.186 27.73 96.5312 27.73C95.2846 27.73 92.5736 27.852 91.9563 27.9495C90.976 28.1203 90.6855 28.3642 90.6855 29.4986V41.1348C90.6855 41.33 90.8671 41.5007 91.0607 41.5007H94.5948C94.7884 41.5007 94.9578 41.33 94.9578 41.1348V36.8414H96.1439L98.2982 41.1348C98.395 41.3178 98.4677 41.5007 98.7823 41.5007H102.571C102.74 41.5007 102.897 41.3788 102.897 41.1714C102.897 41.1104 102.885 41.0372 102.849 40.9763L100.368 36.1949ZM98.1893 32.6699C98.1893 33.17 97.8383 33.6335 96.9427 33.6335H94.982V31.3282H96.9427C97.8625 31.3282 98.1893 31.6697 98.1893 32.2918V32.6699Z" fill="white"/>
<path d="M95.2245 22.7536L94.1715 22.2169C93.4091 21.7778 93.0702 21.4973 93.0702 21.0582C93.0702 20.4117 93.5301 20.1556 94.6556 20.1556C95.1034 20.1556 95.6965 20.18 96.4106 20.2287H96.4348C96.5558 20.2287 96.6405 20.1556 96.6405 20.0458V19.6189C96.6405 19.5457 96.6042 19.4603 96.4469 19.4237C96.0959 19.3749 95.3092 19.2896 94.6677 19.2896C93.0097 19.2896 92.0898 19.9116 92.0898 21.046C92.0898 21.8998 92.6587 22.3999 93.518 22.9L94.6193 23.4732C95.5149 23.9977 95.8296 24.2782 95.8296 24.7661C95.8296 25.5224 95.2971 25.9005 94.1957 25.9005C93.7358 25.9005 92.9976 25.8639 92.5134 25.8273H92.4771C92.3561 25.8273 92.2714 25.9005 92.2714 26.0103V26.4006C92.2714 26.5226 92.3077 26.5713 92.4892 26.6079H92.5013C92.9612 26.6811 93.4817 26.7543 94.1957 26.7543C96.6647 26.7543 96.8584 25.2296 96.8584 24.7661C96.8463 23.9733 96.4105 23.4244 95.2245 22.7536Z" fill="#44BE4C"/>
<path d="M60.5612 31.7553C60.5007 31.7553 60.4523 31.7431 60.4039 31.7065C59.1089 30.8893 58.5884 29.4378 58.9273 27.4862C59.1331 26.2909 60.1739 24.5955 61.2874 23.6075C61.7473 23.205 62.1588 22.8756 62.534 22.6195C62.4855 22.5341 62.4371 22.4243 62.4008 22.339C62.3403 22.4487 62.2556 22.5463 62.1709 22.6317C61.7594 23.022 61.5778 23.1074 61.4326 23.1074C61.4205 23.1074 61.4084 23.1074 61.3963 23.1074C61.3721 23.1318 61.2874 23.205 61.0695 23.4855L61.0332 23.5221C60.2223 24.4979 59.4598 25.4249 59.0241 26.3397C58.3948 27.657 58.5158 28.9865 58.649 29.6695C58.6611 29.7549 58.649 29.8525 58.5884 29.9135C58.5279 29.9867 58.4432 30.0233 58.3585 30.0233C58.2738 30.0233 58.2012 29.9867 58.1406 29.9257C56.5189 28.1449 56.1074 24.9248 59.8713 21.2412L59.8955 21.229C60.4402 20.7777 61.1663 20.2532 61.5778 19.9727C61.5657 19.9361 61.5657 19.8873 61.5657 19.8507C61.3358 20.0093 61.0453 20.2044 60.6822 20.4606C58.4795 22.2048 57.2087 24.0466 56.9061 25.9128C56.8819 26.0591 56.7609 26.1689 56.6157 26.1689C56.5068 26.1689 56.4099 26.1079 56.3494 26.0103C55.5748 24.5955 56.4583 23.3391 56.8335 22.8025C56.8577 22.7659 56.894 22.7171 56.9061 22.6927L56.9183 22.6805C58.3464 20.8631 60.416 19.6311 61.1421 19.3506C61.2753 19.3018 61.4084 19.253 61.5294 19.2286C61.5294 19.2042 61.5294 19.1798 61.5294 19.1555C60.3312 19.5702 58.3222 21.0094 57.2087 22.2414C57.1482 22.3024 57.0756 22.339 56.9909 22.339C56.8335 22.339 56.7004 22.217 56.6883 22.0462C56.652 20.9485 57.6081 19.7897 58.1164 19.3262C58.4311 19.0457 59.3025 18.4602 60.2223 17.8991C59.835 18.0943 59.4356 18.3016 59.121 18.4846C59.0726 18.509 59.0241 18.5212 58.9757 18.5212C58.8668 18.5212 58.7579 18.4602 58.7095 18.3626C58.6611 18.265 58.6611 18.1431 58.7337 18.0577C59.3751 17.1307 60.658 16.3135 61.602 15.9842C61.6868 15.9598 61.7836 15.9354 61.8804 15.9354C62.0619 15.9354 62.2677 15.9842 62.4734 16.0939L62.6671 16.0695C62.655 16.0573 62.655 16.0573 62.6429 16.0451C62.5582 15.9354 62.5219 15.789 62.5461 15.6548C62.5703 15.5451 62.6429 15.4475 62.7518 15.4231C63.2117 15.2889 64.4946 15.0938 65.9349 15.0938C67.2783 15.0938 69.13 15.2645 70.3645 16.0695C70.4734 16.1427 70.5218 16.2769 70.4855 16.4111C70.4492 16.5452 70.3282 16.6306 70.195 16.6306C70.1829 16.6306 70.1587 16.6306 70.1466 16.6306C69.8925 16.5818 69.6141 16.5452 69.2994 16.5452C68.9969 16.5452 68.6822 16.5818 68.3191 16.6672C68.2949 16.6672 68.2707 16.6794 68.2586 16.6794C68.2223 16.6794 68.186 16.6794 68.1618 16.6672C68.0165 16.6184 67.8713 16.5696 67.7382 16.533C67.7987 16.594 67.8229 16.6672 67.8229 16.7526C67.8108 16.8746 67.7261 16.9843 67.5929 17.0209C66.8305 17.2161 65.9591 17.5698 65.4386 17.8747L65.7533 18.1919C67.1451 17.1917 68.4764 16.6916 69.7351 16.6916C71.0664 16.6916 71.9136 17.2527 72.2767 17.4966C72.9908 17.9601 73.4144 19.0701 73.366 20.3264C73.3539 20.485 73.2328 20.6191 73.0634 20.6191C73.015 20.6191 72.9545 20.6069 72.9061 20.5703C71.3932 19.6677 69.5778 19.5458 68.1618 19.5458C67.8471 19.5458 67.5324 19.558 67.2662 19.558H67.1451C67.1693 19.5824 67.1935 19.619 67.2056 19.6677C67.6171 19.6433 67.9923 19.619 68.3312 19.619C70.1587 19.619 71.6474 20.0337 73.1481 20.9607C73.959 21.4851 74.2979 22.4487 74.2253 23.9856C74.2132 24.1442 74.08 24.2783 73.9348 24.2783C73.9106 24.2783 73.8864 24.2783 73.8622 24.2661C73.9227 24.4003 73.9711 24.5589 73.9953 24.7174C74.0074 24.8272 73.9832 24.9248 73.9106 25.0102C73.8501 25.0711 73.7775 25.1077 73.6928 25.1077C73.6807 25.1077 73.6686 25.1077 73.6443 25.1077C73.2813 25.0468 73.1481 25.0346 72.8093 24.9858C72.7003 24.9736 72.6398 24.8882 72.6156 24.8516C72.3493 24.4613 70.8123 22.961 68.1981 22.8025H68.186L67.7503 23.1318C67.7987 23.1318 67.8471 23.1318 67.8955 23.1318C68.8395 23.1318 70.6065 23.2903 71.7321 24.3149C71.8168 24.4003 71.8531 24.5223 71.8047 24.6442C71.7563 24.7662 71.6474 24.8394 71.5142 24.8394C71.5021 24.8394 71.49 24.8394 71.49 24.8394C71.0301 24.7906 70.5339 24.7662 70.0498 24.7662C69.2994 24.7662 68.6096 24.8272 68.2102 24.9126C68.1255 24.937 68.0165 24.9614 67.8834 24.9858C66.4795 25.2663 63.1754 25.9372 61.8804 30.4258C61.832 30.5843 61.6747 30.6819 61.4568 30.6819C61.2026 30.6819 60.9364 30.5599 60.9001 30.316C60.7306 29.3036 60.8638 27.2423 63.7684 24.7906L63.6353 24.5467L63.5264 24.6686C63.3812 24.8272 63.2117 24.9858 63.0423 25.1687C61.7594 26.4738 59.9924 28.2546 60.9122 31.4016C60.9364 31.4991 60.9243 31.5845 60.8638 31.6699C60.7427 31.7065 60.658 31.7553 60.5612 31.7553Z" fill="#44BE4C"/>
<path d="M65.8868 15.2644C67.3996 15.2644 69.094 15.4717 70.2075 16.2036C70.3043 16.2645 70.2559 16.4231 70.147 16.4231C70.1349 16.4231 70.1349 16.4231 70.1227 16.4231C69.8202 16.3743 69.5418 16.3377 69.2392 16.3377C68.9367 16.3377 68.622 16.3743 68.2226 16.4597C68.2105 16.4597 68.2105 16.4597 68.1984 16.4597C68.1863 16.4597 68.1742 16.4597 68.1621 16.4475C67.1939 16.106 66.3709 15.984 65.56 15.984C65.1485 15.984 64.737 16.0084 64.3013 16.0572C64.2166 16.0694 64.1682 16.1548 64.2045 16.2279L64.2287 16.2767C64.2529 16.3133 64.2892 16.3499 64.3376 16.3499C64.6281 16.3377 65.1243 16.2889 65.6568 16.2889C66.2862 16.2889 66.976 16.3499 67.4843 16.5817C67.6054 16.6305 67.5812 16.7646 67.4601 16.8012C66.6613 17.0086 65.7294 17.3867 65.1848 17.716C65.1243 17.7526 65.1122 17.838 65.1485 17.8868L65.56 18.3015C65.5842 18.3259 65.6205 18.3503 65.6568 18.3503C65.681 18.3503 65.7052 18.3381 65.7294 18.3259C67.3149 17.1793 68.622 16.8256 69.6507 16.8256C70.9094 16.8256 71.7445 17.3623 72.0955 17.594C72.8096 18.0575 73.1485 19.1675 73.1 20.2531C73.1 20.3262 73.0395 20.3628 72.979 20.3628C72.9548 20.3628 72.9427 20.3628 72.9185 20.3506C71.3935 19.4358 69.5539 19.3017 68.0774 19.3017C67.6417 19.3017 67.2423 19.3139 66.8792 19.3139C66.7703 19.3139 66.7219 19.448 66.8066 19.5212L66.9155 19.6066C66.9276 19.6188 66.9397 19.6432 66.9518 19.6554L66.9639 19.7042C66.976 19.753 67.0244 19.7774 67.0728 19.7774C67.0728 19.7774 67.0728 19.7774 67.0849 19.7774C67.4722 19.753 67.8595 19.7286 68.2468 19.7286C69.7839 19.7286 71.2967 20.0091 72.979 21.0459C73.6568 21.485 74.0441 22.3022 73.9714 23.9122C73.9714 23.9732 73.9109 24.022 73.8625 24.022C73.8504 24.022 73.8504 24.022 73.8383 24.022C73.4389 23.9244 73.1 22.9365 72.2044 22.6071C72.1923 22.6071 72.1802 22.5949 72.1681 22.5949C72.0713 22.5949 72.0108 22.7291 72.0955 22.8023C72.6401 23.278 73.6084 23.7293 73.7415 24.6807C73.7536 24.7661 73.7052 24.8636 73.6326 24.8636H73.6205C73.2453 24.8027 73.1121 24.7905 72.7854 24.7417C72.7612 24.7417 72.737 24.7173 72.7249 24.6929C72.5191 24.3879 70.9942 22.7291 68.1621 22.5705C68.1379 22.5705 68.1137 22.5584 68.1016 22.5584L67.4359 23.0584C67.3391 23.1316 67.3875 23.2658 67.5085 23.2658C67.6175 23.2658 67.7264 23.2536 67.8474 23.2536C69.0335 23.2536 70.5827 23.4975 71.563 24.3879C71.6477 24.4611 71.5872 24.5953 71.4783 24.5953H71.4662C70.982 24.5465 70.4858 24.5221 70.0138 24.5221C69.2392 24.5221 68.5373 24.5831 68.1379 24.6807C67.097 24.9368 63.1273 25.3027 61.675 30.3158C61.6508 30.4012 61.5419 30.45 61.4208 30.45C61.2514 30.45 61.0577 30.3646 61.0335 30.2305C60.8641 29.2669 60.9972 27.2665 63.8777 24.8514C63.9261 24.8149 63.9382 24.7539 63.9019 24.7051C63.8414 24.5953 63.7809 24.4733 63.6962 24.327C63.6719 24.2904 63.6356 24.266 63.5872 24.266C63.5509 24.266 63.5267 24.2782 63.5025 24.3026C63.442 24.3636 63.3936 24.4245 63.3331 24.4855C62.0986 25.8272 59.6054 27.7178 60.6826 31.3892C60.7068 31.4746 60.6462 31.5478 60.5736 31.5478C60.5494 31.5478 60.5373 31.5478 60.5131 31.5356C59.1939 30.7183 58.8187 29.2425 59.1213 27.4983C59.3028 26.4005 60.2832 24.7173 61.4208 23.7293C61.917 23.2902 62.3406 22.9609 62.6916 22.7169C62.74 22.6803 62.7521 22.6193 62.7279 22.5705C62.6553 22.4364 62.5827 22.2778 62.5101 22.1192C62.4859 22.0705 62.4496 22.0461 62.4012 22.0461C62.3648 22.0461 62.3164 22.0705 62.3043 22.107C62.2438 22.2412 62.1591 22.3632 62.0502 22.4608C61.6508 22.8511 61.5176 22.8877 61.4329 22.8877C61.4087 22.8877 61.3966 22.8877 61.3845 22.8877C61.3119 22.8877 61.2393 22.9243 60.9246 23.339C60.1016 24.3392 59.3149 25.2783 58.855 26.2297C58.2741 27.4495 58.2862 28.7424 58.4677 29.6694C58.4798 29.7548 58.4193 29.8157 58.3467 29.8157C58.3225 29.8157 58.2862 29.8035 58.262 29.7792C56.9912 28.3887 55.9382 25.3149 59.9806 21.3508C59.9806 21.3508 59.9806 21.3508 59.9927 21.3386C60.5373 20.8751 61.2635 20.3628 61.6871 20.0579C61.7234 20.0335 61.7476 19.9847 61.7355 19.9359C61.7113 19.7896 61.6871 19.631 61.6871 19.4724C61.4934 19.6066 61.1425 19.8505 60.5373 20.2531C60.5373 20.2531 60.5373 20.2531 60.5252 20.2531C57.4632 22.6803 56.8581 24.7539 56.6886 25.8272C56.6765 25.8882 56.6281 25.9248 56.5676 25.9248C56.5313 25.9248 56.4829 25.9004 56.4587 25.8638C55.6841 24.4367 56.7007 23.1926 57.0154 22.7291C57.0154 22.7291 57.0154 22.7291 57.0154 22.7169C58.4556 20.8873 60.4889 19.7042 61.1546 19.448C61.324 19.387 61.4571 19.3505 61.5661 19.3261C61.6266 19.3139 61.6629 19.2651 61.6629 19.2041C61.6629 19.1187 61.6629 19.0455 61.6629 18.9967C61.6629 18.9236 61.6024 18.8748 61.5419 18.8748C61.5297 18.8748 61.5055 18.8748 61.4934 18.887C61.4692 18.8992 61.4571 18.8992 61.4329 18.9114C60.1742 19.3383 58.1168 20.8385 57.0275 22.0461C57.0033 22.0705 56.967 22.0827 56.9428 22.0827C56.8823 22.0827 56.8218 22.0339 56.8218 21.9729C56.7975 20.9605 57.7053 19.8383 58.1894 19.3992C58.6614 18.9723 60.5252 17.7892 61.7476 17.1305C61.7839 17.1184 61.796 17.0818 61.8081 17.0452C61.8202 16.9842 61.8323 16.9354 61.8444 16.8744C61.7839 16.8988 61.7355 16.9232 61.6871 16.9354C61.3361 17.0452 59.8596 17.7526 58.9882 18.2527C58.964 18.2649 58.9518 18.2649 58.9276 18.2649C58.8429 18.2649 58.7703 18.1673 58.8308 18.0819C59.4239 17.2159 60.6583 16.4109 61.6145 16.0816C61.6871 16.0572 61.7597 16.045 61.8323 16.045C62.026 16.045 62.2075 16.1182 62.3648 16.1914C62.3769 16.2036 62.4012 16.2036 62.4133 16.2036H62.4254L63.3089 16.0816L63.321 16.0572C62.6795 16.0206 62.6553 15.7279 62.6795 15.5937C62.6916 15.5449 62.7158 15.5205 62.7642 15.5083C63.1636 15.4717 64.4344 15.2644 65.8868 15.2644ZM65.8868 14.8984C64.4344 14.8984 63.1152 15.0936 62.6553 15.2278C62.4738 15.2766 62.3527 15.4229 62.3164 15.6059C62.3043 15.6791 62.3043 15.7644 62.3164 15.8376C62.147 15.7766 61.9897 15.7401 61.8323 15.7401C61.7113 15.7401 61.6024 15.7523 61.4934 15.7888C60.5252 16.1182 59.1939 16.972 58.5282 17.9356C58.4314 18.0819 58.4193 18.2771 58.4919 18.4357C58.5404 18.521 58.6009 18.582 58.6735 18.6308C58.3467 18.8504 58.0925 19.0455 57.9473 19.1797C57.4148 19.6554 56.4345 20.8751 56.4587 22.0339C56.4587 22.2412 56.5918 22.412 56.7854 22.473C56.7733 22.4974 56.7491 22.5096 56.737 22.534C56.7249 22.5462 56.7249 22.5584 56.7128 22.5584C56.6886 22.5949 56.6644 22.6315 56.6402 22.6681C56.2408 23.2292 55.321 24.5465 56.144 26.0712C56.2287 26.2297 56.3861 26.3273 56.5676 26.3273C56.6402 26.3273 56.7128 26.3151 56.7733 26.2785C56.7612 26.3639 56.7612 26.4371 56.7491 26.5225C56.6523 28.3033 57.4753 29.4864 57.9836 30.0353C58.0804 30.1329 58.2015 30.1939 58.3346 30.1939C58.4798 30.1939 58.613 30.1329 58.7098 30.0109C58.7582 29.9499 58.7945 29.8889 58.8066 29.8157C59.0487 30.6818 59.5449 31.3648 60.3074 31.8405C60.38 31.8893 60.4647 31.9137 60.5615 31.9137C60.7068 31.9137 60.852 31.8405 60.9488 31.7185C61.0456 31.5966 61.0698 31.438 61.0214 31.2916C60.9609 31.0721 60.9004 30.8525 60.8641 30.6452C61.0093 30.7549 61.203 30.8159 61.3966 30.8159C61.6992 30.8159 61.9291 30.6696 61.9897 30.4256C63.2605 26.0468 66.4798 25.3881 67.8595 25.1076C67.9927 25.0832 68.1016 25.0588 68.1984 25.0344C68.5736 24.9368 69.2513 24.888 69.9896 24.888C70.4616 24.888 70.9578 24.9124 71.4056 24.949C71.4178 24.949 71.442 24.949 71.4541 24.949C71.6598 24.949 71.8414 24.8271 71.914 24.6319C71.9382 24.5587 71.9503 24.4733 71.9382 24.3879C72.1802 24.5953 72.3376 24.7783 72.4102 24.8758C72.4949 24.9978 72.6038 25.071 72.7249 25.0832C73.0637 25.132 73.1848 25.1442 73.56 25.2052C73.5842 25.2052 73.6084 25.2052 73.6326 25.2052C73.7657 25.2052 73.8988 25.1442 73.9835 25.0466C74.0804 24.9246 74.1288 24.7661 74.1046 24.6075C74.0925 24.5099 74.0683 24.4245 74.0441 24.3392C74.2135 24.266 74.3345 24.1074 74.3466 23.9122C74.4314 22.3022 74.0562 21.2898 73.1848 20.7288C73.1606 20.7166 73.1485 20.7044 73.1242 20.6922C73.3179 20.6312 73.4631 20.4604 73.4752 20.2409C73.5357 18.9114 73.0879 17.7648 72.3134 17.2525C72.0471 17.0818 71.4541 16.6914 70.5827 16.5085C70.6069 16.4719 70.619 16.4353 70.6311 16.3987C70.6916 16.1914 70.6069 15.9718 70.4253 15.8498C69.1424 15.0814 67.2423 14.9106 65.8868 14.8984ZM65.6568 17.8746C65.7536 17.8258 65.8505 17.777 65.9473 17.7282C65.8626 17.7892 65.7778 17.8502 65.681 17.9112L65.6568 17.8746Z" fill="black"/>
<path d="M64.5922 26.6692C64.3622 26.6692 64.1807 26.6082 64.0596 26.4862C63.8781 26.3033 63.8902 26.0349 63.9023 25.8398C63.9023 25.791 63.9023 25.7544 63.9023 25.7178C63.8902 25.608 63.8902 25.4373 63.9023 25.1689C63.9023 24.5835 63.9023 23.6077 63.8418 22.1074V21.9976L63.9265 21.9366C63.9991 21.8879 64.6164 21.4731 65.0037 21.4731C65.161 21.4731 65.2578 21.5463 65.3062 21.6073C65.3668 21.6805 65.6209 21.9854 65.9356 22.3636C66.686 23.254 67.7026 24.4859 67.8962 24.7542C68.0536 24.9738 68.0415 25.1567 68.0173 25.2787C67.9447 25.547 67.6784 25.6934 67.5332 25.7544C67.4968 25.7666 66.6618 26.1325 65.8267 26.3521C65.282 26.5716 64.8826 26.6692 64.5922 26.6692Z" fill="#FCEE21"/>
<path d="M64.9919 21.6682C65.0645 21.6682 65.1129 21.6804 65.1492 21.7292C65.3549 21.9853 67.4608 24.4857 67.7271 24.8761C67.9934 25.2664 67.6666 25.5103 67.4366 25.6079C67.2067 25.7055 66.4563 26.0104 65.7422 26.2056C65.1976 26.4129 64.8345 26.4983 64.5925 26.4983C63.951 26.4983 64.1083 25.9616 64.0962 25.7177C64.072 25.3761 64.1326 24.2906 64.0236 22.1073C64.0236 22.0951 64.653 21.6682 64.9919 21.6682ZM64.9919 21.3022C64.5804 21.3022 63.9873 21.6804 63.8179 21.7901L63.6484 21.8999L63.6605 22.1073C63.7332 23.6075 63.7332 24.5833 63.7211 25.1688C63.7211 25.4371 63.7211 25.6079 63.7211 25.7299C63.7211 25.7543 63.7211 25.7909 63.7211 25.8396C63.709 26.0348 63.6968 26.3641 63.9268 26.6203C64.0841 26.7788 64.302 26.8642 64.5804 26.8642C64.895 26.8642 65.3065 26.7666 65.8512 26.5593C66.7105 26.3275 67.5455 25.9616 67.5819 25.9494C67.7634 25.8762 68.0781 25.6933 68.1749 25.3518C68.2233 25.1932 68.2233 24.9492 68.0297 24.6687C67.8481 24.4126 67.0009 23.388 66.0569 22.2658C65.7422 21.8877 65.4881 21.5828 65.4276 21.5096C65.367 21.4242 65.2339 21.3022 64.9919 21.3022Z" fill="black"/>
<path d="M62.691 24.6933C61.9406 24.6933 61.1539 24.303 60.6456 23.6687C60.1615 23.071 59.9799 22.3514 60.1373 21.6317L60.1736 21.4854C60.3914 20.4486 61.045 17.2773 62.0495 14.9476L62.1221 14.7769L62.2916 14.85C63.3566 15.3501 67.7984 19.1313 68.1857 19.5216C68.7908 20.1315 68.9602 20.9853 68.6214 21.8025C68.2583 22.6807 67.4474 23.2418 66.5276 23.2418C65.9708 23.2418 65.4141 23.0344 64.8695 22.6319C64.5669 23.937 63.7681 24.6933 62.691 24.6933Z" fill="#FCEE21"/>
<path d="M62.2068 15.0206C63.2597 15.5085 67.6894 19.3019 68.0403 19.6556C69.299 20.9241 68.2219 23.0586 66.5154 23.0586C65.9708 23.0586 65.3656 22.8391 64.7484 22.3024C64.4821 23.8881 63.5986 24.5101 62.6909 24.5101C61.3717 24.5101 59.992 23.205 60.3066 21.6681C60.4882 20.8509 61.1659 17.4601 62.2068 15.0206ZM62.0252 14.5327L61.88 14.8742C60.8755 17.2283 60.2098 20.3996 59.992 21.4486L59.9557 21.595C59.7983 22.3634 59.992 23.144 60.5003 23.7905C61.0449 24.4613 61.88 24.8882 62.6909 24.8882C63.7801 24.8882 64.6031 24.1686 64.9783 22.9367C65.4745 23.2538 66.0071 23.4246 66.5275 23.4246C67.5078 23.4246 68.4034 22.8147 68.7907 21.8633C69.1538 20.9851 68.9723 20.0459 68.3187 19.3872C67.9193 18.9847 63.4897 15.2036 62.3762 14.6791L62.0252 14.5327Z" fill="black"/>
</svg>
