<svg width="171" height="57" viewBox="0 0 171 57" fill="none" xmlns="http://www.w3.org/2000/svg">
<rect x="0.5" y="0.632812" width="170" height="55" rx="7.5" fill="#13151B"/>
<rect x="0.5" y="0.632812" width="170" height="55" rx="7.5" stroke="#303443"/>
<path d="M56.4454 30.1972C56.8491 30.1972 57.15 30.0852 57.3479 29.8612C57.5458 29.6372 57.6408 29.3092 57.6408 28.8772H60.4037L60.4196 28.9332C60.4433 29.9972 60.0791 30.8692 59.3191 31.5412C58.5671 32.2132 57.6012 32.5492 56.4296 32.5492C54.965 32.5492 53.825 32.0852 53.0333 31.1652C52.2337 30.2452 51.8379 29.0452 51.8379 27.5732V27.3652C51.8379 25.9012 52.2337 24.7012 53.0254 23.7812C53.8171 22.8532 54.9412 22.3892 56.3979 22.3892C57.625 22.3892 58.6066 22.7332 59.3429 23.4292C60.0791 24.1252 60.4354 25.0692 60.4116 26.2612L60.3958 26.3172H57.6329C57.6329 25.8532 57.53 25.4772 57.3321 25.1812C57.1262 24.8852 56.8254 24.7412 56.4137 24.7412C55.8437 24.7412 55.44 24.9812 55.2104 25.4532C54.9808 25.9332 54.8621 26.5652 54.8621 27.3652V27.5732C54.8621 28.3972 54.9808 29.0372 55.2104 29.5012C55.44 29.9652 55.8516 30.1972 56.4375 30.1972H56.4454Z" fill="white"/>
<path d="M67.1402 25.2612H66.0398C65.6915 25.2532 65.4065 25.3092 65.1927 25.4292C64.9711 25.5492 64.8048 25.7172 64.7019 25.9332V32.3572H61.6777V22.5652H64.5277L64.6386 24.0052C64.8444 23.4932 65.1136 23.0932 65.4461 22.8132C65.7786 22.5332 66.1744 22.3892 66.6177 22.3892C66.7602 22.3892 66.9107 22.3972 67.0532 22.4212C67.2036 22.4452 67.3302 22.4692 67.449 22.5012L67.1561 25.2692L67.1402 25.2612Z" fill="white"/>
<path d="M72.8875 28.0452V28.1172H72.9509L74.55 22.5732H77.7721L73.9167 33.8212C73.6159 34.5412 73.2359 35.1412 72.7609 35.6132C72.2859 36.0852 71.5417 36.3172 70.5125 36.3172C70.2513 36.3172 70.0375 36.3012 69.8713 36.2692C69.705 36.2372 69.4438 36.1732 69.0796 36.0852L69.4438 33.9092C69.5309 33.9252 69.5863 33.9412 69.6338 33.9492C69.6734 33.9572 69.7288 33.9652 69.7921 33.9652C70.2671 33.9652 70.6154 33.8932 70.8371 33.7492C71.0588 33.6052 71.225 33.3892 71.3279 33.1092L71.5734 32.4692L68.2246 22.5732H71.4388L72.8796 28.0452H72.8875Z" fill="white"/>
<path d="M87.534 27.6692C87.534 29.1412 87.2095 30.3252 86.5524 31.2132C85.8953 32.1012 84.969 32.5492 83.7736 32.5492C83.3065 32.5492 82.8949 32.4612 82.5307 32.2772C82.1665 32.0932 81.8578 31.8372 81.5886 31.4932V36.1252H78.5645V22.5652H81.3907L81.5015 23.6452C81.7786 23.2452 82.0953 22.9332 82.4674 22.7172C82.8395 22.5012 83.267 22.3892 83.7578 22.3892C84.9611 22.3892 85.8874 22.8532 86.5445 23.7892C87.2015 24.7252 87.534 25.9572 87.534 27.4772V27.6692ZM84.5178 27.4772C84.5178 26.6532 84.399 25.9892 84.1615 25.4852C83.924 24.9812 83.544 24.7332 83.0136 24.7332C82.6732 24.7332 82.3882 24.7972 82.1507 24.9252C81.9132 25.0532 81.7311 25.2372 81.5886 25.4772V29.5652C81.7311 29.7732 81.9211 29.9332 82.1586 30.0372C82.3961 30.1412 82.689 30.1892 83.0295 30.1892C83.5599 30.1892 83.9399 29.9652 84.1695 29.5252C84.399 29.0852 84.5178 28.4612 84.5178 27.6692V27.4772Z" fill="white"/>
<path d="M92.4503 20.1328V22.5648H94.0891V24.6848H92.4503V29.1728C92.4503 29.5248 92.5216 29.7728 92.6641 29.9248C92.8066 30.0768 92.9966 30.1568 93.2341 30.1568C93.4241 30.1568 93.5745 30.1568 93.6853 30.1408C93.7962 30.1328 93.9386 30.1008 94.1128 30.0688L94.3266 32.3328C93.9941 32.4128 93.6932 32.4688 93.4241 32.5008C93.1549 32.5328 92.8382 32.5488 92.4741 32.5488C91.4766 32.5488 90.7242 32.2768 90.2097 31.7408C89.6951 31.2048 89.4417 30.3568 89.4417 29.1888V24.6848H88.0801V22.5648H89.4417V20.1328H92.4582H92.4503Z" fill="white"/>
<path d="M94.8418 27.3729C94.8418 25.9009 95.2535 24.7009 96.0768 23.7729C96.9001 22.8449 98.048 22.3809 99.5205 22.3809C100.993 22.3809 102.149 22.8449 102.98 23.7729C103.803 24.7009 104.215 25.9009 104.215 27.3729V27.5649C104.215 29.0449 103.803 30.2449 102.98 31.1649C102.157 32.0849 101.009 32.5489 99.5443 32.5489C98.0797 32.5489 96.9001 32.0849 96.0768 31.1649C95.2535 30.2449 94.8418 29.0449 94.8418 27.5649V27.3729ZM97.866 27.5649C97.866 28.3889 97.9926 29.0289 98.246 29.4929C98.4993 29.9569 98.9347 30.1969 99.5364 30.1969C100.138 30.1969 100.55 29.9649 100.811 29.4929C101.064 29.0209 101.199 28.3809 101.199 27.5649V27.3729C101.199 26.5729 101.072 25.9409 100.811 25.4609C100.558 24.9809 100.122 24.7409 99.5205 24.7409C98.9189 24.7409 98.4993 24.9809 98.246 25.4609C97.9926 25.9409 97.866 26.5809 97.866 27.3729V27.5649Z" fill="white"/>
<path d="M108.332 22.5652L108.451 23.9412C108.768 23.4532 109.156 23.0692 109.623 22.7972C110.09 22.5252 110.604 22.3892 111.182 22.3892C112.132 22.3892 112.876 22.7012 113.407 23.3172C113.937 23.9412 114.206 24.9252 114.206 26.2852V32.3572H111.182V26.2772C111.182 25.7172 111.063 25.3172 110.834 25.0852C110.604 24.8532 110.264 24.7332 109.821 24.7332C109.543 24.7332 109.29 24.7812 109.076 24.8852C108.855 24.9892 108.673 25.1332 108.514 25.3092V32.3492H105.498V22.5652H108.332Z" fill="white"/>
<path d="M120.278 32.5488C118.853 32.5488 117.713 32.0928 116.866 31.1888C116.019 30.2848 115.592 29.1488 115.592 27.7888V27.4448C115.592 25.9568 115.98 24.7408 116.748 23.7968C117.523 22.8528 118.624 22.3808 120.065 22.3888C121.379 22.3888 122.408 22.7888 123.152 23.5808C123.896 24.3808 124.268 25.4528 124.268 26.8208V28.4208H118.735L118.719 28.4768C118.782 28.9808 118.988 29.3888 119.328 29.7088C119.669 30.0288 120.12 30.1968 120.69 30.1968C121.26 30.1968 121.719 30.1488 122.068 30.0608C122.416 29.9728 122.843 29.8128 123.374 29.5888L124.086 31.4528C123.659 31.7648 123.113 32.0288 122.44 32.2368C121.767 32.4448 121.046 32.5488 120.278 32.5488ZM120.065 24.7408C119.629 24.7408 119.305 24.9008 119.083 25.2128C118.861 25.5248 118.735 25.9488 118.687 26.4688L118.711 26.5168H121.316V26.2848C121.316 25.7888 121.213 25.4128 121.015 25.1488C120.809 24.8848 120.492 24.7488 120.065 24.7488V24.7408Z" fill="white"/>
<path d="M133.862 28.2452H133.918L134.963 22.5732H137.757L135.485 32.3652H132.928L131.353 27.1732H131.297L129.714 32.3652H127.165L124.885 22.5732H127.679L128.748 28.2932H128.804L130.379 22.5732H132.287L133.878 28.2452H133.862Z" fill="white"/>
<path d="M143.893 29.6049C143.893 29.3649 143.758 29.1489 143.489 28.9569C143.22 28.7649 142.721 28.5969 142.009 28.4449C140.877 28.2209 140.03 27.8769 139.46 27.4049C138.89 26.9329 138.597 26.2929 138.597 25.4769C138.597 24.6129 138.953 23.8849 139.673 23.2849C140.386 22.6849 141.36 22.3809 142.587 22.3809C143.877 22.3809 144.898 22.6689 145.666 23.2529C146.426 23.8369 146.791 24.5889 146.759 25.5089L146.743 25.5649H143.806C143.806 25.1809 143.711 24.8849 143.513 24.6849C143.315 24.4849 143.006 24.3889 142.579 24.3889C142.262 24.3889 141.993 24.4769 141.779 24.6529C141.566 24.8289 141.455 25.0529 141.455 25.3249C141.455 25.5969 141.581 25.8049 141.827 25.9889C142.072 26.1729 142.571 26.3329 143.323 26.4769C144.503 26.7089 145.381 27.0609 145.951 27.5329C146.521 27.9969 146.806 28.6609 146.806 29.5169C146.806 30.3729 146.418 31.1249 145.651 31.6929C144.875 32.2609 143.853 32.5489 142.587 32.5489C141.32 32.5489 140.228 32.2129 139.46 31.5329C138.692 30.8609 138.328 30.1009 138.359 29.2689L138.375 29.2129H141.114C141.122 29.6769 141.265 30.0129 141.534 30.2209C141.803 30.4289 142.175 30.5249 142.666 30.5249C143.07 30.5249 143.378 30.4449 143.584 30.2849C143.79 30.1249 143.901 29.9009 143.901 29.6049H143.893Z" fill="white"/>
<path d="M41.1646 28.1338L36.0195 33.333L41.1646 38.5322L46.3097 33.333L41.1646 28.1338Z" fill="#351774"/>
<path d="M41.1667 17.7329H30.875L36.0208 22.9329L41.1667 28.1329L46.3125 22.9329L41.1667 17.7329Z" fill="#DA5991"/>
<path d="M36.0202 33.3328L30.8743 28.1328L25.7285 33.3328L30.8743 38.5328H41.166L36.0202 33.3328Z" fill="#591C7E"/>
<path d="M30.8743 17.7329L25.7285 22.9329V33.3329L30.8743 28.1329L36.0202 22.9329L30.8743 17.7329Z" fill="#A72E83"/>
</svg>
