<svg width="171" height="57" viewBox="0 0 171 57" fill="none" xmlns="http://www.w3.org/2000/svg">
<rect x="0.5" y="0.632812" width="170" height="55" rx="7.5" fill="#13151B"/>
<rect x="0.5" y="0.632812" width="170" height="55" rx="7.5" stroke="#303443"/>
<g clip-path="url(#clip0_1679_95405)">
<mask id="mask0_1679_95405" style="mask-type:luminance" maskUnits="userSpaceOnUse" x="23" y="17" width="125" height="22">
<path d="M147.727 17.2998H23.2656V38.7632H147.727V17.2998Z" fill="white"/>
</mask>
<g mask="url(#mask0_1679_95405)">
<path d="M130.631 23.7242H132.3V27.1621H130.631V35.1146H132.05V38.511H127.213V27.1621H125.461V23.7242H127.213V18.961H130.631V23.7242ZM120.499 27.1621H119.415V23.7242H123.96V35.1146H125.378V38.5524H119.082V35.1146H120.499V27.1621ZM120.499 22.3574V18.961H123.96V22.3574H120.499ZM24.6833 27.1621H23.2656V23.7242H28.144V25.2982C29.0613 24.4697 31.021 23.5585 33.4393 23.5585V27.0792C29.2698 27.1621 28.144 29.1916 28.144 31.0969V35.1146H29.5199V38.5524H23.2656V35.1146H24.6833V27.1621ZM65.8784 27.1621V23.7242H61.2503V24.7597C60.0411 23.9728 58.6651 23.5585 57.1641 23.5585C55.0376 23.5585 53.2447 24.3041 51.7854 25.7952C50.326 27.2863 49.5338 29.0673 49.5338 31.1797C49.5338 33.2921 50.2843 35.0727 51.7854 36.5224C53.2864 38.014 55.0793 38.7595 57.1641 38.7595C58.7068 38.7595 60.0411 38.3867 61.2503 37.5583V38.511H65.8784V35.0732H64.7944V27.1621H65.8784ZM57.4143 35.5288C54.9543 35.5288 52.9946 33.5406 52.9946 31.1379C52.9946 28.6945 54.996 26.7478 57.4143 26.7478C59.8743 26.7478 61.7506 28.736 61.7506 31.1383C61.7506 33.5406 59.8326 35.5288 57.4143 35.5288ZM81.6395 35.1146V17.3042H76.6776V20.742H78.0954V24.884C76.8444 24.0556 75.4684 23.5999 73.8423 23.5999C71.7158 23.5999 69.923 24.3455 68.4636 25.8366C67.0043 27.3277 66.212 29.1087 66.212 31.1797C66.212 33.2507 66.9626 35.0727 68.4636 36.5224C69.9647 38.014 71.7575 38.7591 73.8423 38.7591C75.4268 38.7591 76.8444 38.3449 78.0954 37.4751V38.552H83.0571V35.1141L81.6395 35.1146ZM74.0925 35.5288C71.6324 35.5288 69.6728 33.5406 69.6728 31.1379C69.6728 28.6945 71.6741 26.7474 74.0925 26.7474C76.5108 26.7474 78.4289 28.7355 78.4289 31.1379C78.4289 33.5406 76.5108 35.5288 74.0925 35.5288ZM118.415 27.1621V23.7242C115.997 23.7242 114.079 24.4697 113.12 25.2982V23.7242H101.695V27.1621H103.113L98.9849 34.2862V23.7656H94.5652L88.3109 34.3276V27.1621H89.7284V23.7242H83.4741V27.1621H84.8917V38.511H89.812L95.5657 28.8602V38.511H100.402L107.115 27.1621H109.659V35.1146H108.241V38.5524H114.496V35.1146H113.078V31.0969C113.12 29.1916 114.204 27.2449 118.415 27.1621ZM48.3663 32.2152C48.408 31.8839 48.4497 31.5521 48.4497 31.1797C48.4497 26.9964 45.1141 23.5999 40.9862 23.5999C36.8584 23.5999 33.5227 26.9964 33.5227 31.1797C33.5227 35.3631 36.8584 38.7595 40.9862 38.7595C44.1968 38.7595 46.9487 36.6885 47.9911 33.8306H44.4053C43.613 34.9489 42.3622 35.653 40.9446 35.653C38.9015 35.653 37.2336 34.2034 36.775 32.2152H48.3663ZM40.9446 26.7064C42.7374 26.7064 44.2802 27.8662 44.9056 29.4815H36.9835C37.6089 27.8662 39.1516 26.7064 40.9446 26.7064ZM147.643 32.2152C147.685 31.8839 147.727 31.5521 147.727 31.1797C147.727 26.9964 144.391 23.5999 140.263 23.5999C136.136 23.5999 132.8 26.9964 132.8 31.1797C132.8 35.3631 136.136 38.7595 140.263 38.7595C143.474 38.7595 146.226 36.6885 147.269 33.8306H143.682C142.891 34.9489 141.64 35.653 140.221 35.653C138.178 35.653 136.511 34.2034 136.052 32.2152H147.643ZM140.221 26.7064C142.015 26.7064 143.557 27.8662 144.183 29.4815H136.261C136.886 27.8662 138.429 26.7064 140.221 26.7064Z" fill="#F8F8FB"/>
</g>
</g>
<defs>
<clipPath id="clip0_1679_95405">
<rect width="125" height="22" fill="white" transform="translate(23 17.1685)"/>
</clipPath>
</defs>
</svg>
