<svg width="171" height="57" viewBox="0 0 171 57" fill="none" xmlns="http://www.w3.org/2000/svg">
<rect x="0.5" y="0.632812" width="170" height="55" rx="7.5" fill="#13151B"/>
<rect x="0.5" y="0.632812" width="170" height="55" rx="7.5" stroke="#303443"/>
<g clip-path="url(#clip0_1679_95412)">
<path d="M60.878 25.2977H57.3335V34.4239H54.7763V25.2977H51.248V22.8281H60.878V25.2977Z" fill="white"/>
<path d="M61.7857 29.3867H65.0065C64.9849 29.016 64.8392 28.6944 64.5695 28.4218C64.3106 28.1492 63.9167 28.0129 63.388 28.0129C62.9132 28.0129 62.5356 28.1546 62.2551 28.4381C61.9745 28.7216 61.8181 29.0378 61.7857 29.3867ZM65.1845 31.4965L67.24 32.0853C67.035 32.8376 66.6088 33.4591 65.9614 33.9498C65.314 34.4295 64.5047 34.6694 63.5336 34.6694C62.3684 34.6694 61.3757 34.2769 60.5557 33.4919C59.7465 32.7068 59.3418 31.6546 59.3418 30.3353C59.3418 29.0705 59.7357 28.0401 60.5233 27.2442C61.3217 26.4482 62.2659 26.0503 63.3556 26.0503C64.6072 26.0503 65.5891 26.421 66.3012 27.1624C67.0242 27.8929 67.3856 28.9124 67.3856 30.2208C67.3856 30.6351 67.3695 30.8914 67.3371 30.9895H61.7371C61.7587 31.4365 61.9476 31.8127 62.3036 32.118C62.6597 32.4124 63.0805 32.5596 63.566 32.5596C64.3969 32.5596 64.9363 32.2053 65.1845 31.4965Z" fill="white"/>
<path d="M71.8632 28.34C71.3345 28.34 70.8921 28.5199 70.536 28.8797C70.1908 29.2395 70.0181 29.7356 70.0181 30.368C70.0181 30.9895 70.1962 31.4802 70.5522 31.84C70.9191 32.1998 71.3669 32.3797 71.8956 32.3797C72.3379 32.3797 72.6994 32.2652 72.98 32.0363C73.2713 31.7964 73.4655 31.5074 73.5626 31.1694L75.7314 31.84C75.5371 32.6141 75.1001 33.2792 74.4204 33.8353C73.7514 34.3914 72.9098 34.6694 71.8956 34.6694C70.6871 34.6694 69.6621 34.266 68.8205 33.4591C67.9896 32.6413 67.5742 31.611 67.5742 30.368C67.5742 29.1141 67.9789 28.0838 68.7881 27.2769C69.6081 26.4592 70.617 26.0503 71.8146 26.0503C72.8613 26.0503 73.7191 26.3229 74.388 26.868C75.057 27.4132 75.4886 28.0838 75.6828 28.8797L73.4817 29.5503C73.3846 29.2013 73.2011 28.9124 72.9314 28.6834C72.6617 28.4544 72.3056 28.34 71.8632 28.34Z" fill="white"/>
<path d="M78.88 29.6484V34.4241H76.4199V22.583H78.88V26.819C79.3655 26.3283 80.0507 26.083 80.9355 26.083C81.9389 26.083 82.6942 26.3883 83.2011 26.9989C83.7193 27.5986 83.9784 28.3727 83.9784 29.3213V34.4241H81.5181V29.7466C81.5181 29.3213 81.4048 28.9833 81.1783 28.7325C80.9624 28.4708 80.6387 28.34 80.2072 28.34C79.8295 28.34 79.5166 28.4654 79.2684 28.7162C79.0311 28.956 78.9016 29.2668 78.88 29.6484Z" fill="white"/>
<path d="M88.9255 32.3797C89.4323 32.3797 89.8584 32.2053 90.2039 31.8563C90.5596 31.5074 90.7381 31.0059 90.7381 30.3516C90.7381 29.6975 90.5596 29.2013 90.2039 28.8634C89.8584 28.5144 89.4323 28.34 88.9255 28.34C88.4291 28.34 88.0029 28.5144 87.6466 28.8634C87.2908 29.2122 87.1124 29.7083 87.1124 30.3516C87.1124 30.9949 87.2908 31.4965 87.6466 31.8563C88.0029 32.2053 88.4291 32.3797 88.9255 32.3797ZM88.9255 26.0503C90.1444 26.0503 91.1585 26.4537 91.9678 27.2605C92.788 28.0674 93.1981 29.0977 93.1981 30.3516C93.1981 31.6055 92.788 32.6413 91.9678 33.4591C91.1585 34.266 90.1444 34.6694 88.9255 34.6694C87.717 34.6694 86.7023 34.2605 85.8827 33.4428C85.0624 32.625 84.6523 31.5947 84.6523 30.3516C84.6523 29.1087 85.0624 28.0838 85.8827 27.2769C86.7023 26.4592 87.717 26.0503 88.9255 26.0503Z" fill="white"/>
<path d="M96.4327 37.5313H93.9727V26.2953H96.3515V27.1294C96.5351 26.846 96.8371 26.6061 97.258 26.4098C97.6893 26.2027 98.1749 26.0991 98.7143 26.0991C99.8582 26.0991 100.765 26.4971 101.433 27.293C102.113 28.078 102.453 29.0921 102.453 30.335C102.453 31.5781 102.092 32.603 101.369 33.4098C100.657 34.2058 99.7398 34.6037 98.6176 34.6037C97.6029 34.6037 96.8748 34.3312 96.4327 33.786V37.5313ZM99.5076 31.8561C99.8639 31.4963 100.042 30.9947 100.042 30.3514C100.042 29.7081 99.8639 29.212 99.5076 28.8631C99.1621 28.5142 98.7309 28.3398 98.2127 28.3398C97.7059 28.3398 97.2741 28.5142 96.9183 28.8631C96.5728 29.212 96.4001 29.7081 96.4001 30.3514C96.4001 30.9947 96.5728 31.4963 96.9183 31.8561C97.2741 32.205 97.7059 32.3794 98.2127 32.3794C98.7309 32.3794 99.1621 32.205 99.5076 31.8561Z" fill="white"/>
<path d="M105.092 29.3867H108.313C108.292 29.016 108.146 28.6944 107.876 28.4218C107.618 28.1492 107.224 28.0129 106.695 28.0129C106.22 28.0129 105.842 28.1546 105.562 28.4381C105.281 28.7216 105.125 29.0378 105.092 29.3867ZM108.492 31.4965L110.547 32.0853C110.342 32.8376 109.916 33.4591 109.268 33.9498C108.621 34.4295 107.812 34.6694 106.84 34.6694C105.675 34.6694 104.682 34.2769 103.863 33.4919C103.053 32.7068 102.648 31.6546 102.648 30.3353C102.648 29.0705 103.043 28.0401 103.83 27.2442C104.629 26.4482 105.573 26.0503 106.663 26.0503C107.914 26.0503 108.896 26.421 109.608 27.1624C110.331 27.8929 110.693 28.9124 110.693 30.2208C110.693 30.6351 110.677 30.8914 110.644 30.9895H105.044C105.066 31.4365 105.254 31.8127 105.611 32.118C105.966 32.4124 106.387 32.5596 106.873 32.5596C107.704 32.5596 108.243 32.2053 108.492 31.4965Z" fill="white"/>
<path d="M119.378 22.583V32.9685C119.378 33.4592 119.399 33.9443 119.443 34.4241H117.079C117.036 34.1624 117.015 33.9007 117.015 33.639C116.821 33.9225 116.529 34.157 116.141 34.3423C115.763 34.5168 115.337 34.604 114.862 34.604C113.718 34.604 112.769 34.206 112.014 33.4101C111.258 32.6032 110.881 31.5783 110.881 30.3353C110.881 29.1141 111.247 28.1056 111.981 27.3096C112.715 26.5028 113.649 26.0994 114.781 26.0994C115.882 26.0994 116.605 26.3774 116.95 26.9335V22.583H119.378ZM113.875 28.8634C113.53 29.2123 113.357 29.7083 113.357 30.3516C113.357 30.995 113.53 31.4965 113.875 31.8563C114.231 32.2053 114.663 32.3797 115.169 32.3797C115.677 32.3797 116.103 32.2053 116.448 31.8563C116.804 31.4965 116.983 30.995 116.983 30.3516C116.983 29.7083 116.804 29.2123 116.448 28.8634C116.103 28.5144 115.677 28.34 115.169 28.34C114.663 28.34 114.231 28.5144 113.875 28.8634Z" fill="white"/>
<path d="M123.245 34.4241H120.785V26.2956H123.245V34.4241ZM120.995 24.84C120.714 24.5565 120.574 24.213 120.574 23.8096C120.574 23.4062 120.714 23.0627 120.995 22.7792C121.275 22.4958 121.61 22.354 121.998 22.354C122.398 22.354 122.737 22.4958 123.018 22.7792C123.309 23.0627 123.455 23.4062 123.455 23.8096C123.455 24.213 123.309 24.5565 123.018 24.84C122.737 25.1235 122.398 25.2652 121.998 25.2652C121.61 25.2652 121.275 25.1235 120.995 24.84Z" fill="white"/>
<path d="M124.105 32.1834C124.105 31.4965 124.327 30.9459 124.769 30.5316C125.211 30.1063 125.783 29.8392 126.484 29.7302L128.378 29.4358C128.766 29.3813 128.961 29.1959 128.961 28.8797C128.961 28.6289 128.853 28.4218 128.637 28.2582C128.432 28.0838 128.146 27.9965 127.779 27.9965C127.369 27.9965 127.04 28.1165 126.792 28.3564C126.555 28.5853 126.425 28.8634 126.404 29.1905L124.267 28.7489C124.321 28.0729 124.651 27.4568 125.255 26.9007C125.869 26.3337 126.717 26.0503 127.795 26.0503C129.015 26.0503 129.91 26.3447 130.482 26.9335C131.065 27.5222 131.356 28.2746 131.356 29.1905V33.1647C131.356 33.6772 131.388 34.097 131.453 34.4241H129.236C129.182 34.206 129.155 33.9007 129.155 33.5082C128.691 34.2715 127.936 34.653 126.889 34.653C126.037 34.653 125.357 34.4132 124.85 33.9334C124.354 33.4428 124.105 32.8594 124.105 32.1834ZM127.488 32.854C127.909 32.854 128.26 32.7286 128.54 32.4778C128.821 32.227 128.961 31.8127 128.961 31.2348V30.875L127.439 31.1204C126.835 31.2185 126.533 31.5183 126.533 32.0199C126.533 32.2488 126.608 32.4451 126.759 32.6086C126.921 32.7722 127.164 32.854 127.488 32.854Z" fill="white"/>
<path d="M39.611 29.6147C39.6112 29.7558 39.648 29.8945 39.7178 30.0167C39.7877 30.1389 39.8882 30.2404 40.0091 30.311L42.5148 31.7726C42.6357 31.8431 42.7729 31.8801 42.9125 31.8801C43.052 31.88 43.1891 31.8428 43.3099 31.7723C43.4308 31.7017 43.5312 31.6002 43.6009 31.4781C43.6707 31.3559 43.7074 31.2173 43.7074 31.0763V23.3727C43.7074 23.2318 43.6707 23.0933 43.601 22.9712C43.5313 22.8492 43.4309 22.7478 43.3101 22.6773L36.7081 18.8276C36.5873 18.7572 36.4502 18.7202 36.3107 18.7202C36.1713 18.7202 36.0342 18.7574 35.9134 18.8278C35.7926 18.8983 35.6922 18.9996 35.6224 19.1216C35.5526 19.2437 35.5157 19.3821 35.5156 19.5231V22.4472C35.5157 22.5882 35.5524 22.7268 35.6221 22.849C35.6918 22.9712 35.7921 23.0727 35.9129 23.1435L39.213 25.067C39.3339 25.1374 39.4343 25.2387 39.504 25.3608C39.5738 25.483 39.6104 25.6215 39.6102 25.7625L39.611 29.6147Z" fill="#82A5FF"/>
<path d="M34.7174 28.6177V32.4699C34.7173 32.611 34.754 32.7496 34.8237 32.8718C34.8934 32.9941 34.9938 33.0956 35.1146 33.1662L37.6203 34.6278C37.7412 34.6983 37.8784 34.7353 38.0179 34.7353C38.1575 34.7352 38.2946 34.698 38.4155 34.6274C38.5363 34.5569 38.6366 34.4554 38.7064 34.3333C38.7761 34.2112 38.8129 34.0726 38.8129 33.9315V26.228C38.8128 26.0868 38.776 25.9482 38.7061 25.826C38.6362 25.7037 38.5357 25.6022 38.4148 25.5317L31.8137 21.6803C31.6928 21.6096 31.5557 21.5724 31.4161 21.5723C31.2765 21.5722 31.1394 21.6092 31.0185 21.6797C30.8976 21.7503 30.7972 21.8517 30.7274 21.9739C30.6576 22.0961 30.621 22.2347 30.6211 22.3758V25.2999C30.6209 25.4409 30.6575 25.5794 30.7273 25.7015C30.797 25.8236 30.8974 25.925 31.0183 25.9953L34.3201 27.9214C34.4409 27.9921 34.5413 28.0937 34.611 28.2158C34.6807 28.338 34.7174 28.4766 34.7174 28.6177Z" fill="#0077CC"/>
<path d="M33.523 28.3864L26.9211 24.5376C26.8001 24.4672 26.663 24.4301 26.5235 24.4302C26.3839 24.4302 26.2468 24.4674 26.1259 24.538C26.0051 24.6085 25.9048 24.71 25.835 24.8322C25.7652 24.9543 25.7285 25.0928 25.7285 25.2339V32.9383C25.7285 33.0793 25.7652 33.2178 25.8349 33.3398C25.9046 33.4619 26.0049 33.5633 26.1257 33.6337L30.2221 36.0201L32.7278 37.4817C32.8486 37.5524 32.9857 37.5897 33.1252 37.5897C33.2648 37.5899 33.402 37.5528 33.5229 37.4823C33.6438 37.4118 33.7442 37.3103 33.814 37.1882C33.8837 37.066 33.9204 36.9273 33.9203 36.7863V29.0827C33.9202 28.9417 33.8835 28.8031 33.8138 28.6809C33.744 28.5587 33.6438 28.4572 33.523 28.3864Z" fill="#004ED6"/>
</g>
<defs>
<clipPath id="clip0_1679_95412">
<rect width="119.542" height="21.3856" fill="white" transform="translate(25.7285 17.4399)"/>
</clipPath>
</defs>
</svg>
