<svg width="171" height="56" viewBox="0 0 171 56" fill="none" xmlns="http://www.w3.org/2000/svg">
<rect x="0.5" y="1.23291" width="170" height="53.8" rx="7.5" fill="#13151B"/>
<rect x="0.5" y="1.23291" width="170" height="53.8" rx="7.5" stroke="#303443"/>
<g clip-path="url(#clip0_1679_95387)">
<mask id="mask0_1679_95387" style="mask-type:luminance" maskUnits="userSpaceOnUse" x="33" y="15" width="105" height="26">
<path d="M33 15.7329H138V40.5329H33V15.7329Z" fill="white"/>
</mask>
<g mask="url(#mask0_1679_95387)">
<path d="M67.5179 22.525C67.4708 23.1923 67.2292 23.7178 66.793 24.1016C66.3571 24.4845 65.7826 24.676 65.0693 24.676C64.2893 24.676 63.6761 24.4083 63.2296 23.8731C62.7823 23.3384 62.5586 22.6037 62.5586 21.669V21.2895C62.5586 20.6934 62.6617 20.168 62.8679 19.7133C63.074 19.2592 63.3684 18.9109 63.7511 18.6682C64.1343 18.4249 64.5795 18.3034 65.0865 18.3037C65.788 18.3037 66.3534 18.4955 66.7829 18.879C67.2114 19.2619 67.4593 19.8 67.5267 20.4932H66.2733C66.2424 20.0929 66.133 19.8025 65.9451 19.6221C65.7568 19.442 65.4707 19.352 65.0865 19.352C64.6686 19.352 64.3559 19.5044 64.1486 19.8094C63.9409 20.115 63.8343 20.5886 63.8287 21.2301V21.6987C63.8287 22.3688 63.9283 22.8586 64.1274 23.1681C64.3268 23.4781 64.6409 23.6329 65.0698 23.6326C65.4568 23.6326 65.7458 23.5426 65.9367 23.3625C66.1276 23.1818 66.2368 22.9028 66.2645 22.5255L67.5179 22.525ZM73.9899 21.6305C73.9899 22.2416 73.884 22.7769 73.6723 23.2363C73.4608 23.6965 73.1579 24.0516 72.7634 24.3013C72.3696 24.5511 71.9179 24.676 71.4082 24.676C70.904 24.676 70.454 24.5526 70.0582 24.3058C69.6632 24.0583 69.3568 23.7055 69.1392 23.2473C68.9218 22.7888 68.8118 22.2611 68.8092 21.6641V21.3577C68.8092 20.7471 68.9171 20.2098 69.133 19.7457C69.3489 19.2815 69.654 18.925 70.0484 18.6762C70.4426 18.4282 70.893 18.304 71.3998 18.3037C71.9068 18.3037 72.3574 18.4279 72.7515 18.6762C73.1457 18.925 73.4505 19.2815 73.6661 19.7457C73.8823 20.2098 73.9904 20.7456 73.9904 21.3532L73.9899 21.6305ZM72.7202 21.3492C72.7202 20.6988 72.6061 20.2047 72.3779 19.867C72.1493 19.5289 71.8233 19.3599 71.3998 19.3599C70.9792 19.3599 70.6546 19.5267 70.4261 19.8604C70.1976 20.194 70.0821 20.6833 70.0798 21.3284V21.6309C70.0798 22.2642 70.1939 22.7553 70.4221 23.1043C70.6504 23.4538 70.979 23.6286 71.4082 23.6286C71.8284 23.6286 72.1517 23.4603 72.3779 23.1238C72.6032 22.7872 72.7173 22.2965 72.7202 21.6517V21.3492ZM76.8849 24.591H75.632V18.3887H76.8849V24.591ZM83.6459 24.591H82.3921L79.9524 20.5105V24.591H78.699V18.3887H79.9524L82.3965 22.4781V18.3887H83.6459V24.591ZM89.8511 19.4241H87.9876V24.591H86.7342V19.4241H84.8958V18.3887H89.8511V19.4241ZM94.8774 21.9033H92.4712V23.5644H95.2952V24.591H91.2174V18.3887H95.2873V19.4241H92.4712V20.902H94.8774V21.9033ZM97.9361 23.5644H100.598V24.591H96.6827V18.3887H97.9361V23.5644ZM105.628 21.9028H103.222V23.5644H106.046V24.591H101.968V18.3887H106.038V19.4241H103.222V20.902H105.628V21.9028ZM112.247 23.8071C112.021 24.0826 111.702 24.2962 111.29 24.4479C110.878 24.6003 110.421 24.6764 109.919 24.6764C109.393 24.6764 108.931 24.5592 108.534 24.3248C108.137 24.0904 107.831 23.7503 107.615 23.3045C107.399 22.8586 107.288 22.3347 107.283 21.7328V21.3107C107.283 20.6916 107.385 20.1557 107.59 19.7031C107.795 19.2502 108.09 18.9038 108.476 18.6638C108.861 18.4237 109.313 18.3037 109.832 18.3037C110.553 18.3037 111.117 18.4791 111.524 18.8298C111.931 19.1806 112.172 19.691 112.247 20.3612H111.027C110.971 20.0061 110.848 19.7462 110.657 19.5818C110.466 19.4171 110.204 19.3347 109.869 19.3347C109.443 19.3347 109.118 19.4979 108.895 19.8245C108.673 20.151 108.56 20.6367 108.557 21.2815V21.6774C108.557 22.3278 108.678 22.8191 108.921 23.1512C109.163 23.4834 109.518 23.6494 109.986 23.6494C110.457 23.6494 110.793 23.5473 110.993 23.343V22.2739H109.853V21.3324H112.247V23.8071ZM116.166 22.3209H115.168V24.591H113.914V18.3887H116.174C116.893 18.3887 117.447 18.5522 117.837 18.879C118.227 19.2052 118.422 19.6665 118.422 20.2629C118.422 20.6863 118.332 21.0391 118.153 21.3213C117.973 21.6042 117.701 21.8293 117.336 21.9967L118.652 24.5312V24.591H117.306L116.166 22.3209ZM115.168 21.2855H116.178C116.493 21.2855 116.737 21.2038 116.91 21.0406C117.082 20.877 117.169 20.6519 117.169 20.3652C117.169 20.0729 117.087 19.8429 116.924 19.6752C116.761 19.5078 116.511 19.4241 116.174 19.4241H115.167L115.168 21.2855ZM123.461 23.3129H121.263L120.846 24.591H119.513L121.778 18.3887H122.939L125.216 24.591H123.883L123.461 23.3129ZM121.602 22.2784H123.123L122.358 19.956L121.602 22.2784ZM127.689 22.4059V24.591H126.436V18.3887H128.809C129.266 18.3887 129.668 18.4741 130.014 18.6447C130.362 18.8148 130.628 19.0569 130.815 19.371C131.002 19.6845 131.095 20.0416 131.095 20.4423C131.095 21.0499 130.891 21.5289 130.483 21.8793C130.074 22.2307 129.51 22.4062 128.788 22.4059H127.689ZM127.689 21.3705H128.809C129.141 21.3705 129.394 21.2911 129.568 21.1322C129.742 20.9728 129.829 20.7456 129.829 20.4507C129.829 20.1466 129.741 19.9008 129.566 19.7133C129.39 19.5264 129.148 19.43 128.839 19.4241H127.689V21.3705ZM137.559 24.591H136.305V21.9329H133.861V24.591H132.607V18.3887H133.861V20.902H136.305V18.3887H137.559V24.591Z" fill="#FABF2C"/>
<path d="M65.9299 30.0647H64.6046V33.7328H63.8722V30.0647H62.5588V29.4672H65.9299V30.0647ZM67.3566 30.9087C67.4633 30.7793 67.5978 30.6757 67.75 30.6057C67.9021 30.5357 68.0681 30.501 68.2354 30.5044C68.909 30.5044 69.2501 30.8901 69.259 31.6616V33.7328H68.5504V31.6882C68.5504 31.4694 68.5034 31.3145 68.4093 31.2236C68.3143 31.133 68.1754 31.0877 67.9928 31.0877C67.7087 31.0877 67.4966 31.2145 67.3566 31.4681V33.7328H66.6472V29.233H67.3566V30.9087ZM71.606 33.7913C71.1566 33.7913 70.7922 33.6493 70.5128 33.3653C70.2337 33.081 70.0941 32.7026 70.0941 32.2302V32.1421C70.0941 31.8256 70.155 31.5429 70.2768 31.294C70.3891 31.0555 70.5666 30.8539 70.7885 30.7126C71.0088 30.5737 71.2643 30.5014 71.5244 30.5044C71.9541 30.5044 72.2863 30.642 72.521 30.9172C72.7551 31.1929 72.8724 31.5826 72.8727 32.0863V32.3737H70.8088C70.8306 32.6353 70.9178 32.8423 71.0704 32.9946C71.2231 33.1469 71.4151 33.2231 71.6466 33.2231C71.9716 33.2231 72.2363 33.0911 72.4407 32.8272L72.8232 33.1939C72.6964 33.3836 72.5214 33.5358 72.3163 33.635C72.0948 33.7415 71.8517 33.795 71.606 33.7913ZM71.5213 31.0753C71.3266 31.0753 71.1696 31.1437 71.0502 31.2807C70.9304 31.4171 70.854 31.6076 70.8207 31.852H72.1716V31.7989C72.1566 31.5609 72.0935 31.3808 71.9824 31.2586C71.8712 31.1364 71.7175 31.0753 71.5213 31.0753ZM75.6388 33.7328V31.0903H75.1571V30.5629H75.6388V30.2728C75.6388 29.9212 75.7362 29.6497 75.9309 29.4584C76.1253 29.2671 76.3977 29.1714 76.7479 29.1714C76.8727 29.1714 77.005 29.189 77.145 29.2241L77.1274 29.7808C77.038 29.7636 76.947 29.7557 76.856 29.7573C76.5175 29.7573 76.3484 29.9321 76.3487 30.2817V30.5629H76.9897V31.0903H76.3482V33.7328H75.6388ZM79.6606 33.4228C79.4524 33.6685 79.1565 33.7913 78.7729 33.7913C78.4303 33.7913 78.1712 33.6908 77.9956 33.4897C77.8194 33.2889 77.7313 32.9978 77.7313 32.6164V30.5629H78.4407V32.6075C78.4407 33.0102 78.6071 33.2116 78.9397 33.2116C79.2841 33.2116 79.5165 33.0876 79.6368 32.8396V30.5629H80.3462V33.7328H79.6778L79.6606 33.4228ZM82.1965 29.7923V30.5629H82.7541V31.0903H82.1965V32.8595C82.1965 32.9809 82.2203 33.0684 82.2679 33.1221C82.3159 33.1753 82.401 33.202 82.5234 33.2023C82.6054 33.2023 82.6881 33.1926 82.7713 33.1731V33.724C82.6196 33.7678 82.4625 33.7904 82.3046 33.7913C81.7599 33.7913 81.4875 33.4896 81.4875 32.8861V31.0903H80.9678V30.5629H81.4871V29.7927L82.1965 29.7923ZM85.4475 33.4228C85.2393 33.6691 84.9435 33.792 84.5603 33.7917C84.2177 33.7917 83.9584 33.6912 83.7825 33.4902C83.606 33.2894 83.5179 32.9983 83.5182 32.6168V30.5633H84.2276V32.608C84.2276 33.0107 84.394 33.212 84.7266 33.212C85.0707 33.212 85.3032 33.088 85.4241 32.84V30.5633H86.1335V33.7333H85.4651L85.4475 33.4228ZM88.7484 31.2139C88.6529 31.1981 88.5562 31.1902 88.4594 31.1904C88.1344 31.1904 87.9154 31.3154 87.8025 31.5655V33.7333H87.0935V30.5633H87.7707L87.7879 30.9176C87.9594 30.6424 88.1968 30.5049 88.5 30.5049C88.6012 30.5049 88.6849 30.5184 88.751 30.5456L88.7484 31.2139ZM90.7707 33.7917C90.321 33.7917 89.9566 33.6497 89.6775 33.3657C89.3987 33.0814 89.2591 32.703 89.2588 32.2307V32.1425C89.2588 31.826 89.3196 31.5434 89.441 31.2945C89.5535 31.0559 89.7311 30.8543 89.9532 30.713C90.1734 30.5742 90.4287 30.5019 90.6887 30.5049C91.119 30.5049 91.4512 30.6424 91.6853 30.9176C91.9197 31.1933 92.0371 31.5831 92.0374 32.0867V32.3742H89.9735C89.9953 32.6357 90.0825 32.8427 90.2352 32.995C90.3878 33.1474 90.5799 33.2236 90.8113 33.2236C91.1363 33.2236 91.401 33.0916 91.6054 32.8276L91.9879 33.1943C91.8611 33.384 91.6861 33.5363 91.481 33.6354C91.2595 33.742 91.0164 33.7955 90.7707 33.7917ZM90.686 31.0757C90.4913 31.0757 90.3343 31.1442 90.2149 31.2812C90.0951 31.4176 90.0187 31.608 89.9854 31.8525H91.3363V31.7993C91.321 31.5614 91.2579 31.3813 91.1471 31.259C91.0359 31.1371 90.8822 31.076 90.686 31.0757ZM94.421 32.1186C94.421 31.808 94.4824 31.5283 94.605 31.2794C94.7175 31.0413 94.8971 30.8416 95.1216 30.705C95.3434 30.5713 95.5984 30.5044 95.8866 30.5044C96.3125 30.5044 96.6582 30.642 96.9238 30.9172C97.1897 31.1929 97.3332 31.5583 97.3544 32.0132L97.3575 32.1802C97.3575 32.4925 97.2977 32.7718 97.1779 33.0181C97.0665 33.2552 96.8877 33.454 96.664 33.5894C96.4413 33.724 96.1841 33.7913 95.8924 33.7913C95.4468 33.7913 95.0901 33.6425 94.8225 33.3449C94.5549 33.0467 94.421 32.6496 94.421 32.1536V32.1186ZM95.1304 32.1802C95.1304 32.5064 95.1977 32.7618 95.3321 32.9463C95.4659 33.1308 95.6527 33.2231 95.8924 33.2231C96.1315 33.2231 96.3177 33.1292 96.4509 32.9415C96.5844 32.7546 96.651 32.4803 96.6507 32.1186C96.6507 31.7986 96.5822 31.5447 96.4452 31.3569C96.3081 31.1691 96.1218 31.0754 95.8862 31.0757C95.655 31.0757 95.4712 31.168 95.3347 31.3525C95.1982 31.537 95.1301 31.8129 95.1304 32.1802ZM98.4463 33.7328V31.0903H97.9646V30.5629H98.4463V30.2728C98.4463 29.9212 98.5435 29.6497 98.7379 29.4584C98.9324 29.2671 99.2047 29.1714 99.555 29.1714C99.6797 29.1714 99.8121 29.189 99.9521 29.2241L99.9344 29.7808C99.8452 29.7636 99.7544 29.7558 99.6635 29.7573C99.3247 29.7573 99.1553 29.9321 99.1553 30.2817V30.5629H99.7972V31.0903H99.1553V33.7328H98.4463ZM102.949 30.5629L102.969 30.8941C103.191 30.6343 103.495 30.5044 103.88 30.5044C104.302 30.5044 104.591 30.6666 104.747 30.9911C104.976 30.6663 105.299 30.5041 105.716 30.5044C106.064 30.5044 106.323 30.6011 106.493 30.7945C106.664 30.9876 106.751 31.2726 106.755 31.6496V33.7328H106.046V31.6705C106.046 31.4691 106.002 31.3216 105.914 31.228C105.826 31.1342 105.682 31.0872 105.48 31.0872C105.318 31.0872 105.186 31.1308 105.084 31.2179C104.98 31.3073 104.905 31.426 104.869 31.5589L104.873 33.7333H104.163V31.647C104.153 31.2738 103.964 31.0872 103.594 31.0872C103.31 31.0872 103.108 31.2035 102.99 31.4362V33.7328H102.281V30.5629H102.949ZM107.589 32.1191C107.589 31.8082 107.65 31.5283 107.773 31.2794C107.886 31.0414 108.065 30.8417 108.29 30.705C108.511 30.5713 108.766 30.5044 109.054 30.5044C109.481 30.5044 109.827 30.642 110.092 30.9172C110.358 31.1929 110.501 31.5583 110.522 32.0132L110.525 32.1802C110.525 32.4925 110.466 32.7718 110.346 33.0181C110.235 33.2553 110.056 33.4541 109.832 33.5894C109.609 33.724 109.352 33.7913 109.06 33.7913C108.615 33.7913 108.258 33.6425 107.991 33.3449C107.723 33.0467 107.589 32.6496 107.589 32.1536V32.1191ZM108.299 32.1802C108.299 32.5064 108.366 32.7618 108.5 32.9463C108.634 33.1308 108.821 33.2231 109.06 33.2231C109.299 33.2231 109.486 33.1292 109.619 32.9415C109.752 32.7546 109.819 32.4803 109.819 32.1186C109.819 31.7986 109.75 31.5447 109.613 31.3569C109.476 31.1691 109.29 31.0754 109.054 31.0757C108.823 31.0757 108.639 31.168 108.503 31.3525C108.366 31.537 108.298 31.8129 108.299 32.1802ZM112.022 30.5629L112.043 30.9291C112.276 30.6457 112.583 30.5041 112.962 30.5044C113.62 30.5044 113.954 30.8823 113.966 31.6381V33.7328H113.257V31.6793C113.257 31.4783 113.214 31.3293 113.127 31.2325C113.041 31.1356 112.899 31.0872 112.702 31.0872C112.416 31.0872 112.203 31.2171 112.063 31.4769V33.7328H111.354V30.5629H112.022ZM116.318 33.7913C115.869 33.7913 115.504 33.6493 115.226 33.3653C114.946 33.081 114.806 32.7026 114.806 32.2302V32.1421C114.806 31.8256 114.867 31.5429 114.989 31.294C115.101 31.0554 115.279 30.8538 115.501 30.7126C115.721 30.5738 115.977 30.5016 116.236 30.5044C116.667 30.5044 116.999 30.642 117.233 30.9172C117.468 31.1929 117.585 31.5826 117.585 32.0863V32.3737H115.522C115.543 32.6353 115.63 32.8423 115.782 32.9946C115.935 33.1469 116.128 33.2231 116.359 33.2231C116.684 33.2231 116.949 33.0911 117.153 32.8272L117.536 33.1939C117.409 33.3835 117.234 33.5357 117.029 33.635C116.807 33.7416 116.564 33.7952 116.318 33.7913ZM116.234 31.0753C116.039 31.0753 115.882 31.1437 115.762 31.2807C115.643 31.4171 115.566 31.6076 115.533 31.852H116.884V31.7989C116.869 31.5609 116.806 31.3808 116.695 31.2586C116.584 31.1364 116.43 31.0753 116.234 31.0753ZM119.441 32.7134L120.083 30.5629H120.839L119.584 34.2133C119.391 34.7465 119.064 35.0131 118.603 35.0131C118.488 35.0111 118.373 34.9934 118.262 34.9604V34.4095L118.396 34.4184C118.575 34.4184 118.71 34.3858 118.8 34.3205C118.891 34.2547 118.962 34.1448 119.014 33.991L119.117 33.7182L118.008 30.5629H118.773L119.441 32.7134ZM48.4765 33.7785L44.0268 35.6982V35.506C43.1687 35.7239 42.2184 35.8497 41.3179 35.89C37.1338 35.8497 33.8126 33.6766 33.7738 31.0908V30.1302C35.1481 32.1133 37.946 33.4419 41.3179 33.3941C42.4593 33.4419 43.6262 33.263 44.6069 33.0101L44.9938 32.05C43.8309 32.3945 42.5612 32.6341 41.3184 32.6257C37.1338 32.6341 33.8126 30.461 33.7743 27.8269V27.059C35.1481 28.8924 37.9399 30.221 41.3184 30.1306C42.8382 30.2214 44.3246 29.9039 45.574 29.3623L45.7681 28.4026C44.5469 29.0417 42.9644 29.4128 41.3184 29.3623C37.1338 29.4128 33.8126 27.2397 33.7743 24.5635V23.7951C35.1481 25.6711 37.946 27.0001 41.3184 27.059C43.2349 27.0001 45.0521 26.4974 46.5419 25.7149L46.7351 24.563C45.3834 25.5573 43.4096 26.1981 41.3184 26.2906C37.1338 26.1981 33.8131 24.0245 33.7743 21.2996C33.8126 18.708 37.1338 16.5345 41.3184 16.5004C43.8128 16.5349 46.1294 17.4029 47.509 18.8041L47.6435 19.026L48.6185 19.0304L48.4765 18.8041C47.1044 16.9543 44.3603 15.7329 41.3184 15.7329C36.6882 15.7329 33 18.2652 33 21.3001V31.2825C33.1628 34.2452 36.7668 36.6575 41.3184 36.6575C44.3246 36.6575 47.0263 35.4839 48.4765 33.7785Z" fill="white"/>
<path d="M46.6658 40.533L48.2276 33.9455L43.7377 35.883L46.4713 24.452H41.1992L42.5655 18.833H59.3563L57.9895 24.452H52.5233L51.3516 27.552L57.4036 25.033L46.6658 40.533ZM49.3994 32.589L48.6185 36.464L55.061 26.777L49.7894 29.102L52.1325 23.677H57.4036L58.38 19.608H43.151L42.1747 23.677H47.4467L44.9082 34.527L49.3989 32.5899L49.3994 32.589Z" fill="#FABF2C"/>
<path d="M75.628 33.7396H76.3312V31.0851H76.9824V30.5688H76.3312V30.2641C76.3312 30.1528 76.3507 30.059 76.3895 29.9829C76.4282 29.9082 76.4895 29.8477 76.5646 29.8101C76.6426 29.7688 76.7351 29.7481 76.8421 29.7481C76.8951 29.7481 76.9436 29.7502 76.9877 29.7543C77.0348 29.7582 77.0777 29.765 77.1165 29.7747L77.1342 29.23C77.0691 29.2122 77.0027 29.1995 76.9357 29.1919C76.867 29.1816 76.7977 29.1767 76.7283 29.1773C76.5024 29.1773 76.3068 29.2192 76.1415 29.3031C75.9791 29.3821 75.8453 29.5101 75.759 29.6693C75.6717 29.8296 75.628 30.0279 75.628 30.2641V30.5688H75.1432V31.0847H75.628V33.7396ZM67.3595 30.9332V29.2393H66.6593V33.7396H67.3595V31.4766C67.3804 31.4365 67.4039 31.3987 67.4301 31.3632C67.4942 31.2756 67.5739 31.2062 67.6692 31.1551C67.7662 31.1046 67.878 31.0794 68.0045 31.0794C68.1254 31.0794 68.2276 31.0999 68.3111 31.1409C68.3949 31.1799 68.4582 31.2443 68.5008 31.334C68.5458 31.4241 68.5683 31.5451 68.5683 31.6972V33.7396H69.2742V31.7034C69.2742 31.4864 69.2499 31.3027 69.2014 31.1524C69.1631 31.0143 69.0919 30.8875 68.994 30.7831C68.904 30.6878 68.7918 30.6163 68.6676 30.575C68.532 30.5302 68.3899 30.5084 68.2471 30.5107C68.0768 30.5082 67.9082 30.545 67.7543 30.6182C67.6004 30.6915 67.4653 30.7993 67.3595 30.9332ZM64.6074 33.7396V30.0595H65.9415V29.4736H62.5586V30.0595H63.8808V33.7396H64.6074Z" fill="white"/>
<path fill-rule="evenodd" clip-rule="evenodd" d="M71.6119 33.7981C71.3953 33.8015 71.1802 33.7627 70.9784 33.6839C70.7982 33.6098 70.6352 33.4991 70.4997 33.3588C70.3681 33.2173 70.2658 33.051 70.1988 32.8695C70.1279 32.6752 70.0923 32.4697 70.0938 32.2628V32.1458C70.0938 31.8978 70.1298 31.6732 70.2019 31.4718C70.2736 31.2708 70.3738 31.0989 70.5023 30.9563C70.6277 30.8134 70.7833 30.7002 70.9576 30.6251C71.1374 30.5478 71.3312 30.5089 71.5267 30.5108C71.7526 30.5108 71.9503 30.5489 72.1197 30.6251C72.2885 30.7012 72.4285 30.8087 72.5397 30.9475C72.6526 31.0842 72.7364 31.2473 72.7911 31.4368C72.847 31.6264 72.8751 31.8354 72.8754 32.0639V32.3655H70.8036C70.8107 32.4656 70.8281 32.5604 70.8557 32.6498C70.8945 32.767 70.9509 32.8696 71.0247 32.9576C71.0988 33.0453 71.1885 33.1147 71.2938 33.1657C71.3985 33.2145 71.5181 33.2388 71.6525 33.2388C71.8219 33.2388 71.9728 33.2046 72.1051 33.1361C72.2375 33.0676 72.3522 32.9709 72.4492 32.846L72.8198 33.2065C72.7445 33.3137 72.6552 33.4102 72.5542 33.4935C72.4454 33.5835 72.3122 33.6567 72.1545 33.7131C71.9799 33.7729 71.7963 33.8016 71.6119 33.7981ZM70.8469 31.7034C70.835 31.7546 70.8255 31.8064 70.8182 31.8584H72.1806V31.8031C72.1781 31.6802 72.1525 31.559 72.1051 31.4457C72.0632 31.3376 71.9912 31.2438 71.8978 31.1755C71.8042 31.1076 71.6797 31.0737 71.5241 31.0737C71.4073 31.0737 71.3032 31.0989 71.2117 31.1494C71.1198 31.2004 71.0424 31.274 70.9867 31.3633C70.9223 31.4684 70.875 31.5833 70.8469 31.7034Z" fill="white"/>
<path d="M79.3018 33.6901C79.436 33.6255 79.5544 33.532 79.6486 33.4164L79.6667 33.7397H80.332V30.5693H79.6256V32.8447C79.5764 32.9522 79.4986 33.044 79.4006 33.1099C79.2859 33.1879 79.1284 33.2268 78.9281 33.2268C78.8609 33.2273 78.7939 33.2174 78.7296 33.1976C78.6678 33.1783 78.6116 33.1441 78.5659 33.098C78.5157 33.0455 78.4779 32.9824 78.4552 32.9133C78.4256 32.8196 78.4117 32.7215 78.4142 32.6232V30.5693H77.7109V32.6175C77.7109 32.8265 77.7362 33.0063 77.7868 33.1569C77.8374 33.3074 77.9084 33.4294 77.9999 33.5227C78.0931 33.6166 78.204 33.6859 78.3326 33.7308C78.4611 33.7757 78.6021 33.7981 78.7556 33.7981C78.9677 33.7981 79.1498 33.7621 79.3018 33.6901ZM82.7337 31.0852V30.5688H82.1704V29.7925H81.4671V30.5688H80.9531V31.0847H81.4671V32.9071C81.4671 33.1241 81.5021 33.298 81.5721 33.4288C81.6421 33.5599 81.7395 33.6545 81.8642 33.7127C81.9886 33.7693 82.1315 33.7977 82.293 33.7977C82.3924 33.7977 82.4801 33.7909 82.5559 33.7773C82.6336 33.7637 82.7017 33.7481 82.7602 33.7304L82.7571 33.1914C82.6755 33.2081 82.5925 33.217 82.5092 33.218C82.4412 33.218 82.3818 33.2091 82.3309 33.1914C82.2799 33.1731 82.2373 33.1365 82.2114 33.0887C82.184 33.0361 82.1704 32.9608 82.1704 32.8628V31.0847L82.7337 31.0852ZM85.0861 33.6901C85.2243 33.6222 85.3401 33.5309 85.4333 33.4164L85.4509 33.7397H86.1167V30.5693H85.4103V32.8447C85.3609 32.9521 85.2831 33.0438 85.1853 33.1099C85.0706 33.1879 84.913 33.2268 84.7124 33.2268C84.6424 33.2268 84.5762 33.2171 84.5139 33.1976C84.4522 33.1782 84.3962 33.144 84.3506 33.098C84.3003 33.0455 84.2623 32.9824 84.2395 32.9133C84.21 32.8195 84.1963 32.7215 84.1989 32.6232V30.5693H83.4952V32.6175C83.4952 32.8265 83.5205 33.0063 83.5711 33.1569C83.6217 33.3074 83.6927 33.4294 83.7842 33.5227C83.8777 33.6166 83.9887 33.6859 84.1173 33.7308C84.2455 33.7757 84.3865 33.7981 84.5403 33.7981C84.7524 33.7981 84.9343 33.7621 85.0861 33.6901ZM87.7768 31.5728V33.7397H87.0736V30.5693H87.7451L87.7649 30.9417L87.7768 30.9209C87.8568 30.7922 87.9561 30.6916 88.0746 30.6193C88.1952 30.547 88.3343 30.5108 88.492 30.5108C88.5349 30.5108 88.5806 30.5146 88.6292 30.5223C88.6798 30.5303 88.7177 30.5391 88.743 30.5489L88.7373 31.2052C88.6427 31.1898 88.5471 31.182 88.4514 31.1817C88.3308 31.1817 88.2248 31.1994 88.1333 31.2349C88.0535 31.2628 87.9805 31.3074 87.9191 31.3656C87.8577 31.4238 87.8092 31.4944 87.7768 31.5728Z" fill="white"/>
<path fill-rule="evenodd" clip-rule="evenodd" d="M90.7506 33.7978C90.517 33.7978 90.3058 33.7597 90.117 33.6835C89.9368 33.6095 89.7739 33.4988 89.6384 33.3585C89.5068 33.217 89.4045 33.0506 89.3375 32.8691C89.2665 32.6748 89.231 32.4693 89.2325 32.2624V32.1455C89.2325 31.8975 89.2685 31.6728 89.3406 31.4715C89.4123 31.2704 89.5125 31.0986 89.641 30.956C89.7665 30.813 89.9222 30.6998 90.0967 30.6247C90.2765 30.5475 90.4703 30.5086 90.6658 30.5105C90.8914 30.5105 91.0889 30.5485 91.2584 30.6247C91.4278 30.7009 91.5679 30.8083 91.6788 30.9471C91.7914 31.0838 91.875 31.2469 91.9294 31.4365C91.9858 31.626 92.0141 31.835 92.0141 32.0636V32.3651H89.9423C89.9494 32.4652 89.9667 32.56 89.9944 32.6495C90.0332 32.7667 90.0897 32.8693 90.1638 32.9572C90.2373 33.0449 90.3267 33.1143 90.432 33.1654C90.5373 33.2141 90.657 33.2385 90.7911 33.2385C90.9481 33.2415 91.1034 33.2062 91.2438 33.1357C91.3761 33.0672 91.4908 32.9705 91.5879 32.8456L91.9589 33.2061C91.8836 33.3133 91.7943 33.4098 91.6933 33.4931C91.5736 33.589 91.4382 33.6633 91.2932 33.7128C91.1186 33.7725 90.935 33.8013 90.7506 33.7978ZM89.9856 31.7031C89.9737 31.7543 89.9641 31.806 89.9569 31.8581H91.3197V31.8027C91.3171 31.6798 91.2913 31.5586 91.2438 31.4453C91.2018 31.3372 91.1299 31.2435 91.0364 31.1752C90.9429 31.1073 90.8183 31.0733 90.6628 31.0733C90.546 31.0733 90.4419 31.0986 90.3504 31.1491C90.2607 31.1981 90.1858 31.2694 90.1258 31.363C90.0605 31.4677 90.0131 31.5826 89.9856 31.7031ZM94.3836 32.122V32.1893C94.3836 32.4178 94.4167 32.6298 94.4829 32.8253C94.5491 33.0201 94.6454 33.1911 94.7719 33.3381C94.8984 33.4828 95.052 33.596 95.2329 33.6778C95.4161 33.7578 95.6235 33.7978 95.855 33.7978C96.0844 33.7978 96.2897 33.7579 96.4709 33.6782C96.6517 33.5958 96.8054 33.4825 96.9319 33.3381C97.0609 33.1879 97.1591 33.0136 97.2208 32.8253C97.287 32.6298 97.3201 32.4178 97.3201 32.1893V32.122C97.3201 31.8935 97.287 31.6815 97.2208 31.4861C97.1596 31.2975 97.0614 31.1231 96.9319 30.9732C96.8048 30.8262 96.6461 30.71 96.4678 30.6336C96.2725 30.5489 96.0615 30.507 95.8488 30.5105C95.6194 30.5105 95.4132 30.5515 95.2303 30.6336C95.0494 30.7136 94.8956 30.8268 94.7688 30.9732C94.6409 31.1237 94.5437 31.2979 94.4829 31.4861C94.4167 31.6815 94.3836 31.8935 94.3836 32.122ZM95.0873 32.1893V32.122C95.0873 31.9812 95.1019 31.8483 95.131 31.7234C95.1571 31.6042 95.2035 31.4903 95.2682 31.3869C95.3306 31.2891 95.4094 31.2128 95.5047 31.1579C95.6017 31.1012 95.7164 31.0729 95.8488 31.0729C95.9811 31.0729 96.095 31.1012 96.1903 31.1579C96.2879 31.2128 96.3678 31.289 96.4298 31.3864C96.4939 31.4839 96.5407 31.5962 96.5701 31.7234C96.601 31.8483 96.6164 31.9812 96.6164 32.122V32.1893C96.6164 32.3319 96.601 32.4667 96.5701 32.5937C96.5407 32.7206 96.495 32.8319 96.4329 32.9276C96.3727 33.0214 96.2904 33.099 96.1934 33.1534C96.0899 33.2106 95.973 33.2388 95.855 33.2354C95.7206 33.2354 95.6047 33.208 95.5073 33.1534C95.4104 33.0989 95.3283 33.0213 95.2682 32.9276C95.203 32.8254 95.1565 32.7123 95.131 32.5937C95.101 32.461 95.0864 32.3253 95.0873 32.1893Z" fill="white"/>
<path d="M99.0943 33.7396H98.3907V31.0851H97.9062V30.5687H98.3907V30.264C98.3907 30.0278 98.4345 29.8296 98.5221 29.6693C98.6118 29.5069 98.7393 29.3848 98.9046 29.303C99.0699 29.2189 99.2655 29.177 99.4914 29.1772C99.5611 29.1772 99.6301 29.1821 99.6983 29.1919C99.7668 29.1995 99.833 29.2122 99.8968 29.2299L99.8796 29.7747C99.8372 29.7647 99.7942 29.7579 99.7508 29.7543C99.7024 29.7504 99.6538 29.7484 99.6052 29.7485C99.4979 29.7485 99.4054 29.7691 99.3277 29.8101C99.253 29.8481 99.1918 29.9085 99.1526 29.9828C99.1115 30.0707 99.0916 30.167 99.0943 30.264V30.5687H99.7451V31.0846H99.0943V33.7396ZM102.914 31.4606V33.7396H102.211V30.5691H102.873L102.896 30.9265C102.999 30.7966 103.125 30.6962 103.273 30.6254C103.431 30.5486 103.613 30.5104 103.819 30.5107C103.963 30.5107 104.095 30.5322 104.213 30.5753C104.334 30.6161 104.438 30.6815 104.526 30.7715C104.59 30.8365 104.644 30.9152 104.687 31.0076C104.705 30.981 104.724 30.955 104.744 30.9296C104.85 30.7988 104.979 30.6962 105.133 30.6218C105.298 30.5447 105.479 30.5066 105.661 30.5107C105.823 30.5107 105.967 30.5331 106.093 30.578C106.222 30.6211 106.331 30.6895 106.42 30.783C106.509 30.8766 106.578 30.9987 106.624 31.1493C106.671 31.2978 106.694 31.4776 106.694 31.6887V33.7396H105.988V31.6856C105.988 31.5253 105.965 31.4013 105.918 31.3136C105.879 31.2308 105.81 31.166 105.725 31.132C105.641 31.0966 105.541 31.0789 105.425 31.0789C105.316 31.0789 105.219 31.0995 105.136 31.1409C105.055 31.1795 104.984 31.2366 104.928 31.3078C104.872 31.3789 104.829 31.4596 104.801 31.5461C104.802 31.5727 104.803 31.5997 104.803 31.6271V33.7396H104.099V31.6891C104.099 31.5347 104.076 31.4137 104.029 31.326C103.989 31.2419 103.919 31.1753 103.834 31.1382C103.739 31.0968 103.636 31.0769 103.533 31.0798C103.401 31.0798 103.288 31.1052 103.195 31.1559C103.104 31.2062 103.027 31.2776 102.97 31.3641C102.949 31.3948 102.931 31.427 102.914 31.4606Z" fill="white"/>
<path fill-rule="evenodd" clip-rule="evenodd" d="M107.518 32.1893V32.122C107.518 31.8935 107.551 31.6815 107.617 31.4861C107.683 31.2891 107.778 31.1182 107.903 30.9732C108.029 30.8265 108.187 30.7104 108.364 30.6336C108.559 30.5489 108.77 30.507 108.983 30.5105C109.214 30.5105 109.421 30.5515 109.602 30.6336C109.784 30.7136 109.939 30.8268 110.066 30.9732C110.192 31.1179 110.289 31.2888 110.355 31.4861C110.421 31.6815 110.454 31.8935 110.454 32.122V32.1893C110.454 32.4178 110.421 32.6298 110.355 32.8253C110.288 33.0201 110.192 33.1911 110.066 33.3381C109.939 33.4837 109.781 33.5997 109.604 33.6778C109.424 33.7578 109.218 33.7978 108.989 33.7978C108.775 33.8014 108.564 33.7607 108.367 33.6782C108.19 33.5999 108.033 33.4839 107.906 33.3381C107.777 33.1879 107.679 33.0136 107.617 32.8253C107.549 32.6203 107.515 32.4054 107.518 32.1893ZM108.221 32.122V32.1893C108.221 32.3319 108.235 32.4667 108.265 32.5937C108.294 32.7206 108.34 32.8319 108.402 32.9276C108.464 33.0235 108.544 33.0988 108.641 33.1534C108.738 33.208 108.854 33.2354 108.989 33.2354C109.119 33.2354 109.232 33.208 109.327 33.1534C109.424 33.0989 109.506 33.0213 109.567 32.9276C109.632 32.8254 109.678 32.7123 109.704 32.5937C109.735 32.4667 109.75 32.3319 109.75 32.1893V32.122C109.75 31.9812 109.735 31.8483 109.704 31.7234C109.678 31.6037 109.63 31.4897 109.564 31.3869C109.505 31.2914 109.422 31.2126 109.324 31.1579C109.22 31.0992 109.102 31.0698 108.983 31.0729C108.85 31.0729 108.736 31.1012 108.638 31.1579C108.542 31.2135 108.461 31.292 108.402 31.3864C108.34 31.4839 108.294 31.5962 108.265 31.7234C108.235 31.8542 108.22 31.9879 108.221 32.122Z" fill="white"/>
<path d="M111.975 31.4864V33.7392H111.271V30.5688H111.934L111.957 30.951L111.972 30.9324C112.079 30.8001 112.215 30.6938 112.369 30.6215C112.53 30.5459 112.705 30.5078 112.883 30.5104C113.034 30.5104 113.172 30.5319 113.294 30.575C113.419 30.6158 113.525 30.6831 113.612 30.777C113.702 30.8709 113.77 30.9929 113.817 31.1432C113.864 31.2917 113.887 31.4743 113.887 31.691V33.7392H113.18V31.6888C113.18 31.5365 113.158 31.4163 113.113 31.3283C113.076 31.2435 113.008 31.1757 112.924 31.1379C112.827 31.0957 112.722 31.0757 112.617 31.0794C112.496 31.0794 112.389 31.1048 112.293 31.1556C112.198 31.2062 112.115 31.2773 112.051 31.3638C112.023 31.4021 111.998 31.443 111.975 31.4864Z" fill="white"/>
<path fill-rule="evenodd" clip-rule="evenodd" d="M116.231 33.7981C116.014 33.8014 115.799 33.7626 115.597 33.6839C115.417 33.6098 115.254 33.4991 115.119 33.3588C114.987 33.2173 114.885 33.051 114.818 32.8695C114.747 32.6752 114.711 32.4697 114.713 32.2628V32.1458C114.713 31.8978 114.749 31.6732 114.821 31.4718C114.893 31.2708 114.993 31.0989 115.121 30.9563C115.247 30.8134 115.402 30.7002 115.577 30.6251C115.757 30.5478 115.95 30.5089 116.146 30.5108C116.372 30.5108 116.569 30.5489 116.739 30.6251C116.908 30.7012 117.048 30.8087 117.159 30.9475C117.272 31.0842 117.355 31.2473 117.41 31.4368C117.466 31.6264 117.495 31.8354 117.495 32.0639V32.3655H115.423C115.43 32.4656 115.447 32.5604 115.475 32.6498C115.514 32.767 115.57 32.8696 115.644 32.9576C115.718 33.0453 115.807 33.1147 115.912 33.1657C116.017 33.2145 116.137 33.2388 116.272 33.2388C116.441 33.2388 116.591 33.2046 116.724 33.1361C116.856 33.0676 116.971 32.9709 117.068 32.846L117.439 33.2065C117.364 33.3137 117.274 33.4102 117.173 33.4935C117.054 33.5893 116.919 33.6636 116.774 33.7131C116.599 33.7729 116.415 33.8017 116.231 33.7981ZM115.466 31.7034C115.454 31.7546 115.445 31.8064 115.437 31.8584H116.8V31.8031C116.797 31.6802 116.771 31.5589 116.724 31.4457C116.682 31.3376 116.61 31.2439 116.517 31.1755C116.423 31.1076 116.299 31.0737 116.143 31.0737C116.026 31.0737 115.922 31.0989 115.831 31.1494C115.741 31.1984 115.666 31.2697 115.606 31.3633C115.541 31.4684 115.494 31.5833 115.466 31.7034Z" fill="white"/>
<path d="M119.027 33.7313L117.908 30.5693H118.667L119.352 32.7349L120.01 30.5693H120.763L119.496 34.2229C119.463 34.3097 119.425 34.3947 119.382 34.4776C119.333 34.5728 119.271 34.6608 119.198 34.7388C119.124 34.8227 119.032 34.89 118.921 34.9408C118.81 34.9933 118.676 35.0196 118.518 35.0196C118.456 35.0196 118.396 35.0137 118.337 35.0019C118.283 34.9927 118.23 34.9821 118.176 34.97L118.174 34.4306C118.22 34.4348 118.267 34.4378 118.314 34.4395C118.413 34.4423 118.512 34.4275 118.606 34.3956C118.681 34.3707 118.747 34.3239 118.795 34.261C118.846 34.1984 118.889 34.1143 118.924 34.0086L119.027 33.7313Z" fill="white"/>
</g>
</g>
<defs>
<clipPath id="clip0_1679_95387">
<rect width="105" height="24.8" fill="white" transform="translate(33 15.7329)"/>
</clipPath>
</defs>
</svg>
