<svg width="171" height="57" viewBox="0 0 171 57" fill="none" xmlns="http://www.w3.org/2000/svg">
<rect x="0.5" y="0.632812" width="170" height="55" rx="7.5" fill="#13151B"/>
<rect x="0.5" y="0.632812" width="170" height="55" rx="7.5" stroke="#303443"/>
<g clip-path="url(#clip0_1679_95463)">
<path fill-rule="evenodd" clip-rule="evenodd" d="M133.079 39.3326H38.0792C37.3793 39.3326 36.8125 38.7598 36.8125 38.0526V18.2126C36.8125 17.5054 37.3793 16.9326 38.0792 16.9326H133.079C133.779 16.9326 134.346 17.5054 134.346 18.2126V38.0526C134.346 38.7598 133.779 39.3326 133.079 39.3326Z" fill="#FF333A"/>
<path d="M49.1323 34.0183L48.6953 32.0388H46.369L45.9491 34.0183H43.6406L46.369 22.2295H48.782L51.5807 34.0183H49.1323ZM48.345 30.2186C48.0999 29.0877 47.8555 27.9741 47.6807 26.8253C47.6104 26.3127 47.5407 25.7828 47.4881 25.2701C47.383 26.9316 47.0511 28.5751 46.7186 30.2193L48.345 30.2186Z" fill="white"/>
<path d="M57.1839 24.8982C56.7114 24.4918 56.1692 24.1385 55.5226 24.1385C54.8405 24.1385 54.368 24.598 54.368 25.2873C54.368 27.3199 57.866 27.2847 57.866 30.5718C57.866 32.6044 56.6595 34.2127 54.5429 34.2127C53.8259 34.2127 53.1261 34.0182 52.5314 33.6118V31.3846C53.0558 31.7379 53.5985 32.0207 54.2452 32.0207C55.0324 32.0207 55.6094 31.526 55.6094 30.7126C55.6094 30.5007 55.5745 30.3062 55.4871 30.1116C55.2775 29.67 54.6302 29.2809 54.2452 29.0159C52.9335 28.0969 52.0938 27.2483 52.0938 25.5343C52.0938 23.6783 53.1609 22.0527 55.1369 22.0527C55.9242 22.0527 56.5011 22.2294 57.1832 22.6185L57.1839 24.8982Z" fill="white"/>
<path d="M63.2763 34.0183L61.1249 28.0266V34.0183H58.8164V22.2295H61.1249V27.4967L63.0661 22.2295H65.4271L63.2757 27.6733L65.6893 34.0183H63.2763Z" fill="white"/>
<path d="M73.4661 27.4614C73.4839 27.7615 73.4839 28.0623 73.4839 28.3625C73.4839 29.1932 73.449 30.0419 73.2742 30.8547C72.8892 32.6748 71.7175 34.2127 69.7409 34.2127C66.5926 34.2127 65.5957 30.7836 65.5957 28.1679C65.5957 25.4639 66.4703 22.0527 69.7409 22.0527C71.525 22.0527 72.6789 23.1836 73.1691 24.8451L70.9303 25.7289C70.8251 25.0396 70.6332 24.1027 69.7586 24.1027C68.1848 24.1027 68.0619 27.0191 68.0619 28.1327C68.0619 29.2995 68.1145 32.0918 69.7757 32.0918C71.0348 32.0918 71.1747 30.5014 71.1925 29.5465H69.7231V27.4607L73.4661 27.4614Z" fill="white"/>
<path d="M79.1459 34.0183L78.7089 32.0388H76.3827L75.9628 34.0183H73.6543L76.3827 22.2295H78.7963L81.595 34.0183H79.1459ZM78.3593 30.2186C78.1142 29.0877 77.8698 27.9741 77.695 26.8253C77.6247 26.3127 77.555 25.7828 77.5024 25.2701C77.3973 26.9316 77.0654 28.5751 76.7329 30.2193L78.3593 30.2186Z" fill="white"/>
<path d="M90.4512 34.0183L89.8742 25.5345C89.8216 26.4535 89.6817 27.3546 89.5246 28.2564L88.4929 34.0183H86.7259L85.6416 28.6807C85.5194 28.0977 85.3965 27.514 85.3446 26.913L85.2046 25.5345L84.8373 34.0183H82.3711L83.3857 22.2295H86.4289L87.5657 29.1933L88.4929 22.2295H91.6064L92.8129 34.0183H90.4512Z" fill="white"/>
<path d="M96.2325 22.2295C96.8449 22.2295 97.8766 22.2647 98.6809 23.0602C99.3105 23.6791 99.643 24.6506 99.643 25.6055C99.643 26.1885 99.5207 26.7722 99.1008 27.2849C98.9083 27.5146 98.6113 27.7975 98.1736 27.9741C98.9254 28.257 99.2927 28.7869 99.4327 29.0167C99.7652 29.5825 99.8349 30.2365 99.8349 30.6781C99.8349 31.562 99.6075 32.3575 98.9602 33.0109C98.0685 33.9121 96.8962 34.0183 96.2141 34.0183H93.7656V22.2295H96.2325ZM96.0748 27.0724C96.4421 27.0545 96.862 26.8957 97.0894 26.666C97.4219 26.33 97.4567 25.8353 97.4567 25.5703C97.4567 25.2874 97.4219 24.8458 97.0894 24.5098C96.8968 24.3153 96.5821 24.1565 96.0748 24.1565V27.0724ZM96.0748 32.0036C96.4421 32.0036 96.862 31.8801 97.1242 31.6324C97.3693 31.4026 97.5612 30.9962 97.5612 30.4836C97.5612 29.9178 97.3687 29.4935 97.1065 29.2465C96.8265 28.9988 96.4066 28.8753 96.0748 28.8753V32.0036Z" fill="white"/>
<path d="M100.951 34.0183V22.2295H103.26V31.809H105.673V34.0183H100.951Z" fill="white"/>
<path d="M106.623 34.0183V22.2295H111.258V24.4209H108.932V26.9661H110.978V29.1933H108.932V31.8442H111.293V34.0183H106.623Z" fill="white"/>
<path d="M116.763 34.0183L114.717 28.5924V34.0183H112.408V22.2295H114.909C115.766 22.2295 116.71 22.3005 117.445 22.7953C118.372 23.4141 118.827 24.5629 118.827 25.6586C118.827 27.002 118.303 27.9562 117.166 28.6634L119.194 34.0189H116.763V34.0183ZM114.716 27.3021C114.838 27.3201 114.978 27.3201 115.101 27.3201C116.098 27.3201 116.588 26.6308 116.588 25.6765C116.588 24.7223 116.168 24.0682 115.154 24.0682H114.717V27.3021H114.716Z" fill="white"/>
<path d="M124.797 24.8982C124.325 24.4918 123.783 24.1385 123.136 24.1385C122.454 24.1385 121.981 24.598 121.981 25.2873C121.981 27.3199 125.479 27.2847 125.479 30.5718C125.479 32.6044 124.272 34.2127 122.156 34.2127C121.439 34.2127 120.739 34.0182 120.145 33.6118V31.3846C120.669 31.7379 121.212 32.0207 121.858 32.0207C122.646 32.0207 123.223 31.526 123.223 30.7126C123.223 30.5007 123.188 30.3062 123.1 30.1116C122.891 29.67 122.244 29.2809 121.858 29.0159C120.547 28.0969 119.707 27.2483 119.707 25.5343C119.707 23.6783 120.774 22.0527 122.75 22.0527C123.537 22.0527 124.114 22.2294 124.796 22.6185V24.8982H124.797Z" fill="white"/>
<path d="M127.265 25.3482C128.104 25.3482 128.784 24.6611 128.784 23.8135C128.784 22.9659 128.104 22.2788 127.265 22.2788C126.426 22.2788 125.746 22.9659 125.746 23.8135C125.746 24.6611 126.426 25.3482 127.265 25.3482Z" fill="white"/>
</g>
<defs>
<clipPath id="clip0_1679_95463">
<rect width="97.5333" height="22.4" fill="white" transform="translate(36.8125 16.9326)"/>
</clipPath>
</defs>
</svg>
