<svg width="56" height="41" viewBox="0 0 56 41" fill="none" xmlns="http://www.w3.org/2000/svg">
<path d="M19.9981 40.3837C30.9361 40.3837 39.8032 31.5167 39.8032 20.5786C39.8032 9.64051 30.9361 0.773438 19.9981 0.773438C9.05994 0.773438 0.192871 9.64051 0.192871 20.5786C0.192871 31.5167 9.05994 40.3837 19.9981 40.3837Z" fill="#9F36F1"/>
<path d="M18.0757 13.1212C18.0757 14.1792 18.9359 15.0379 19.9955 15.0379C21.0551 15.0379 21.9154 14.1792 21.9154 13.1212C21.9154 12.0632 21.0551 11.2045 19.9955 11.2045C18.9359 11.2045 18.0757 12.0632 18.0757 13.1212Z" fill="white"/>
<path d="M33.235 16.1998C32.1249 15.0897 30.7174 14.3859 29.1912 14.1645C29.0915 14.1503 28.9935 14.1376 28.8923 14.1282C28.856 14.125 28.818 14.1218 28.7816 14.1186C28.7073 14.1123 28.6346 14.106 28.5602 14.1028C28.5254 14.1013 28.4922 14.0981 28.4574 14.0965C28.3515 14.0917 28.2439 14.0886 28.1364 14.0886C28.0289 14.0886 27.9308 14.0917 27.8281 14.0965C27.7869 14.0981 27.7457 14.1013 27.7046 14.1028C27.6477 14.106 27.5923 14.1107 27.5354 14.1155C27.4026 14.1265 27.2697 14.1407 27.1384 14.1582C25.5934 14.3716 24.1669 15.0754 23.0441 16.1952C23.0441 16.1952 23.0394 16.1983 23.0378 16.2014L19.9967 19.2426L17.9391 21.3L14.8981 24.3412C14.0583 25.1808 12.9575 25.6016 11.8569 25.6016C10.7562 25.6016 9.65551 25.1808 8.81572 24.3412C7.13625 22.6617 7.13625 19.9384 8.81572 18.2589C9.65551 17.4192 10.7562 16.9985 11.8569 16.9985C12.9575 16.9985 14.0535 17.4159 14.8917 18.2525C14.8933 18.2542 14.8948 18.2573 14.8981 18.2589L16.5965 19.9574L18.654 17.8999L16.9555 16.1998C16.9539 16.1982 16.9507 16.1967 16.9492 16.1934C15.276 14.514 15.2775 11.7939 16.9555 10.116C17.7952 9.27619 18.896 8.85555 19.9967 8.85555C21.0973 8.85555 22.1979 9.27619 23.0378 10.116C23.8459 10.924 24.2649 11.9758 24.295 13.0354C25.1902 12.6178 26.1517 12.3506 27.148 12.243C26.9487 10.6631 26.2387 9.20192 25.0953 8.0585C23.7336 6.69687 21.9229 5.94727 19.9967 5.94727C18.0704 5.94727 16.2597 6.69687 14.8981 8.06009C13.5363 9.42176 12.7852 11.2325 12.7852 13.1587C12.7852 13.4956 12.8089 13.8293 12.8548 14.1566C12.5259 14.1107 12.1938 14.0871 11.8569 14.0871C9.93068 14.0871 8.11991 14.8367 6.75828 16.1998C3.94646 19.0117 3.94646 23.5868 6.75828 26.3987C8.11991 27.7603 9.93068 28.5114 11.8569 28.5114C13.7831 28.5114 15.5939 27.7618 16.9555 26.3987L19.9967 23.3575L23.0378 26.3987C24.3994 27.7603 26.2102 28.5114 28.1364 28.5114C30.0626 28.5114 31.8734 27.7618 33.235 26.3987C36.0469 23.5868 36.0469 19.0117 33.235 16.1998ZM31.1774 24.3396C30.3378 25.1793 29.2371 25.6 28.1364 25.6C27.0357 25.6 25.935 25.1793 25.0953 24.3396L22.0541 21.2984L25.0953 18.2573C25.0953 18.2573 25.0984 18.2525 25.1015 18.251C25.9413 17.4144 27.0388 16.9969 28.1364 16.9969C29.2339 16.9969 30.3378 17.4175 31.1774 18.2573C32.857 19.9368 32.857 22.6601 31.1774 24.3396Z" fill="white"/>
<path d="M23.036 31.0376C22.1962 31.8773 21.0956 32.298 19.9949 32.298C18.8942 32.298 17.7934 31.8773 16.9537 31.0376C16.4872 30.5711 16.152 30.0223 15.9448 29.4387C15.0749 29.8768 14.1403 30.1725 13.1646 30.3117C13.5141 31.3475 14.0992 32.298 14.8963 33.0951C16.2579 34.4567 18.0687 35.2079 19.9949 35.2079C21.9211 35.2079 23.7319 34.4582 25.0935 33.0951C25.889 32.2996 26.4757 31.3492 26.8252 30.3117C25.851 30.1725 24.9164 29.8768 24.0465 29.4387C23.8394 30.0223 23.5025 30.5695 23.036 31.0376Z" fill="white"/>
</svg>
