<svg width="32" height="32" viewBox="0 0 32 32" xmlns="http://www.w3.org/2000/svg">
    <g fill-rule="nonzero" fill="none">
        <path d="M31.52 19.872c-2.135 8.57-10.819 13.787-19.392 11.648C3.555 29.381-1.659 20.702.48 12.13 2.619 3.56 11.298-1.66 19.87.48c8.57 2.139 13.79 10.818 11.65 19.392z" fill="#F7931A"/>
        <path d="M23.056 13.72c.318-2.129-1.303-3.273-3.52-4.037l.72-2.884L18.5 6.36l-.701 2.809a69.141 69.141 0 0 0-1.407-.331l.704-2.827-1.754-.437-.718 2.883-3.541-.878-.467 1.876s1.302.298 1.275.317c.711.178.84.648.818 1.021l-1.97 7.901c-.087.216-.308.54-.805.416.018.026-1.276-.32-1.276-.32l-.871 2.013 3.536.893-.727 2.917 1.754.438.72-2.887c.48.13.944.25 1.398.363l-.717 2.873 1.756.438.727-2.912c2.994.566 5.245.338 6.192-2.368.763-2.18-.038-3.438-1.613-4.259 1.147-.265 2.011-1.02 2.242-2.578m-4.012 5.624c-.544 2.18-4.213 1.002-5.404.706l.964-3.865c1.19.297 5.007.885 4.441 3.159m.544-5.656c-.495 1.984-3.55.976-4.542.728l.873-3.506c.992.248 4.184.709 3.668 2.777" fill="#FFF"/>
    </g>
</svg>
