<?xml version="1.0" encoding="UTF-8"?><svg id="a" xmlns="http://www.w3.org/2000/svg" width="35.08" height="23.95" viewBox="0 0 35.08 23.95"><defs><style>.cls-1{fill:#ea4335;}.cls-2{fill:#fbbc04;}.cls-3{fill:#4285f4;}.cls-4{fill:#34a853;}.cls-5{fill:#53565b;}.cls-6{fill:#2d9248;}.cls-7{fill:#5f6368;}.cls-8{fill:#cc3a2e;}.cls-9{fill:#dba403;}</style></defs><path class="cls-3" d="M12.04,11.7c0-.39-.03-.79-.1-1.16h-5.4v2.2h3.1c-.13.71-.54,1.34-1.14,1.74v1.44h1.85c1.08-1,1.71-2.47,1.71-4.22Z"/><path class="cls-4" d="M6.54,17.3c1.54,0,2.84-.5,3.8-1.39l-1.85-1.44c-.51.35-1.18.55-1.95.55-1.49,0-2.76-1.01-3.21-2.36h-1.9v1.47c.98,1.93,2.95,3.16,5.12,3.16h-.01Z"/><path class="cls-2" d="M3.32,12.66c-.24-.71-.24-1.48,0-2.19v-1.47h-1.9c-.81,1.62-.81,3.53,0,5.14l1.9-1.48h0Z"/><path class="cls-1" d="M6.54,8.11c.82,0,1.61.29,2.19.86l1.64-1.64c-1.04-.98-2.4-1.51-3.83-1.49-2.16,0-4.14,1.22-5.12,3.16l1.9,1.47c.45-1.35,1.72-2.36,3.21-2.36h.01Z"/><path class="cls-6" d="M3.32,12.66h0l-1.9,1.47h0c.98,1.93,2.95,3.16,5.12,3.16h0v-2.27h0c-1.49,0-2.76-1.01-3.21-2.36h-.01Z"/><path class="cls-9" d="M1.42,9h0c-.81,1.62-.81,3.53,0,5.14h0l1.9-1.47c-.24-.71-.24-1.48,0-2.19h0l-1.9-1.47h0Z"/><path class="cls-8" d="M6.54,5.84h0c-2.16,0-4.14,1.22-5.12,3.16h0l1.9,1.47c.45-1.35,1.72-2.36,3.21-2.36h0v-2.27h.01Z"/><path class="cls-7" d="M15.99,11.42v4.03h-1.28V5.49h3.4c.82-.01,1.61.29,2.2.86.6.54.93,1.3.92,2.11.02.81-.31,1.58-.92,2.12-.6.57-1.33.85-2.2.85h-2.12ZM15.99,6.71v3.48h2.14c.47.01.93-.17,1.27-.51.67-.65.68-1.73.03-2.4l-.03-.03c-.33-.35-.79-.54-1.27-.54,0,0-2.14,0-2.14,0ZM24.17,8.4c.94,0,1.7.25,2.25.76.55.5.82,1.21.82,2.08v4.21h-1.22v-.94h-.05c-.54.78-1.24,1.18-2.12,1.18-.76,0-1.37-.22-1.89-.67-.49-.41-.78-1.03-.76-1.67,0-.7.26-1.27.8-1.69s1.25-.63,2.14-.63c.77,0,1.39.14,1.88.42v-.29c0-.44-.19-.85-.54-1.13-.34-.3-.79-.47-1.24-.46-.71,0-1.28.3-1.7.9l-1.12-.71c.62-.89,1.53-1.33,2.75-1.33h0ZM22.51,13.37c0,.34.16.64.42.83.28.22.64.34,1,.34.54,0,1.06-.22,1.44-.6.42-.4.64-.87.64-1.41-.4-.31-.95-.48-1.67-.48-.52,0-.95.13-1.3.38-.35.26-.52.57-.52.93h0ZM34.26,8.63l-4.28,9.83h-1.32l1.58-3.44-2.81-6.39h1.4l2.03,4.9h.03l1.98-4.9s1.4,0,1.4,0Z"/><path class="cls-5" d="M15.99,12.66h-1.28v2.79h1.28v-2.79h0ZM27.23,12.66h-1.23c-.03.48-.24.9-.63,1.27-.39.39-.9.6-1.44.6h-.03c-.35,0-.68-.12-.97-.34-.26-.19-.42-.5-.42-.83,0-.26.08-.49.26-.69h-1.49c-.06.21-.09.43-.09.67,0,.64.26,1.26.76,1.67.5.44,1.13.67,1.89.67.88,0,1.58-.39,2.12-1.18h.05v.94h1.23v-2.79h-.01ZM32.51,12.66h-1.27l-.35.87h-.03l-.36-.87h-1.29l1.04,2.36-1.58,3.44h1.32l2.52-5.79h0Z"/></svg>