<?xml version="1.0" encoding="UTF-8"?><svg id="a" xmlns="http://www.w3.org/2000/svg" width="35.08" height="23.95" viewBox="0 0 35.08 23.95"><defs><style>.cls-1{fill:#fff;}</style></defs><path class="cls-1" d="M6.69,6.8c-.4.48-1.05.84-1.68.79-.09-.63.23-1.32.61-1.73.4-.49,1.1-.83,1.67-.85.06.66-.2,1.3-.6,1.79ZM7.27,7.72c-.93-.05-1.73.52-2.17.52s-1.12-.5-1.86-.49c-.96.01-1.84.55-2.33,1.4-1,1.72-.26,4.24.71,5.63.48.69,1.05,1.45,1.79,1.43.71-.02.99-.45,1.84-.45s1.11.45,1.86.45c.78-.01,1.27-.69,1.74-1.38.54-.78.77-1.55.78-1.58-.01-.01-1.5-.57-1.51-2.28-.01-1.43,1.17-2.1,1.22-2.13-.67-.99-1.71-1.1-2.07-1.12ZM12.63,5.79v10.34h1.62v-3.53h2.24c2.05,0,3.49-1.39,3.49-3.41s-1.41-3.39-3.42-3.39h-3.92ZM14.25,7.14h1.86c1.4,0,2.21.74,2.21,2.05s-.8,2.06-2.22,2.06h-1.86v-4.11h.01ZM22.93,16.21c1.01,0,1.96-.51,2.39-1.32h.04v1.24h1.5v-5.14c0-1.49-1.21-2.45-3.05-2.45-1.72,0-2.99.98-3.03,2.32h1.46c.12-.63.72-1.06,1.52-1.06.99,0,1.55.45,1.55,1.3v.57l-2.02.12c-1.88.11-2.89.88-2.89,2.21s1.05,2.23,2.56,2.23l-.02-.02ZM23.37,14.98c-.87,0-1.41-.41-1.41-1.04s.52-1.02,1.54-1.08l1.79-.11v.59c0,.96-.83,1.66-1.93,1.66h.01ZM28.84,18.94c1.57,0,2.32-.6,2.96-2.41l2.84-7.9h-1.65l-1.9,6.11h-.04l-1.9-6.11h-1.69l2.74,7.52-.15.45c-.24.78-.65,1.07-1.37,1.07-.13,0-.38-.01-.48-.02v1.24c.1.02.5.04.62.04h0Z"/></svg>