<?xml version="1.0" encoding="UTF-8"?><svg id="a" xmlns="http://www.w3.org/2000/svg" width="32" height="32" viewBox="0 0 32 32"><defs><style>.b{fill:#efb99d;}.b,.c,.d,.e,.f,.g,.h{stroke-width:0px;}.d{fill:#fdde00;}.e{fill:#e78c19;}.f{fill:#fbfbfb;}.g{fill:#3c2d0c;}.h{fill:#e72d36;}</style></defs><circle class="d" cx="16" cy="15.96" r="15.13"/><path class="g" d="m8.63,11.52s-.78.99-.52,5.45c0,0-1.71,4.38-1.13,6.61s2.84,2.12,2.84,2.12c0,0,3.62,3.19,6.41.38,2.78-2.81-2.32-13.71-2.32-13.71l-.64-3.77s-.7.55-.61,4.17-1.42,1.07-1.42,1.07l-2.61-2.32Z"/><path class="e" d="m8.92,15.46l-.96,2.7-.35,1.88s-1.19,4.2,3.71,4.14c0,0,3.83,3.42,6.32,1.13l.67-.72,1.16-1.8,1.91-5.71s-.61-3.91-4.46-5.54c0,0-.32-.17-.9.06,0,0-1.59-3.59-2.61-3.16,0,0-.87.46-.12,4l-1.36.61s-1.49-2.83-2.87-2.26c-1.28.52-.14,4.67-.14,4.67Z"/><path class="b" d="m13.88,10.22l.12,1.57s.09.9,1.04.58c.27-.09.51-.28.48-.59-.02-.23-.18-.44-.29-.64-.2-.37-.35-.77-.58-1.13-.12-.18-.36-.59-.63-.54,0,0-.2-.06-.14.75Z"/><path class="b" d="m9.69,11.97s.41-.51,1.22.69c.81,1.2.73,1.04.73,1.04,0,0,.43.48-.46,1.09-.19.14-.41.26-.63.35-.14.06-.29.08-.44.08-.17,0-.25-.09-.29-.25-.14-.52-.29-1.04-.37-1.58-.06-.4-.18-1.16.24-1.43Z"/><path class="f" d="m19.1,14.38c0,.28-.42.51-.93.51s-.93-.23-.93-.51.42-.7.94-.7.92.42.92.7Z"/><ellipse class="f" cx="13.19" cy="16.28" rx="1.01" ry=".65" transform="translate(-7.48 19.74) rotate(-60.49)"/><path class="f" d="m15.07,18.96l2.54-1.32s3.16-1.65,3.93-.38,0,3.22,0,3.22c0,0-.33,2.28-2.65,2.48l-1.25.17-1.59.04s-2.57.14-4.45-1.25l-.59-.72s-1.2-1.65-.36-2.84,3.71.65,3.71.65c0,0,.39.2.72-.06Z"/><circle class="h" cx="20.82" cy="11.77" r=".61"/><circle class="h" cx="19.47" cy="10.28" r=".61"/><circle class="h" cx="17.31" cy="9.8" r=".61"/><path class="h" d="m17.79,5.48c.13,1.8-.13,3.42-.57,3.42s-1.01-1.75-1.01-3.42c0-.69.36-.8.8-.8s.73.11.78.8Z"/><path class="h" d="m21.82,6.6c-.66,1.68-1.6,3.02-1.99,2.84s-.15-2.02.57-3.52c.3-.62.67-.56,1.06-.37s.61.42.36,1.06Z"/><path class="h" d="m24.71,9.86c-1.46,1.06-2.98,1.69-3.21,1.32s.96-1.79,2.37-2.67c.59-.36.87-.11,1.1.26s.29.68-.27,1.09Z"/><path class="c" d="m14.95,17.19c-.05,0-.11.01-.16.02,0,.02,0,.04.01.06,0,.19-.29.34-.65.35,0,.02,0,.03,0,.05.02.22.41.38.87.34.46-.04.82-.25.8-.47-.02-.22-.41-.38-.87-.34Z"/><path class="c" d="m18.15,16.39c-.05,0-.11.01-.16.02,0,.02,0,.04.01.06,0,.19-.29.34-.65.35,0,.02,0,.03,0,.05.02.22.41.38.87.34.46-.04.82-.25.8-.47-.02-.22-.41-.38-.87-.34Z"/><path class="c" d="m19.2,17.33s-1.27.37-1.2,1.09,1.61,1.09,1.61,1.09c0,0,.41.16.65-.23s.59-.92.49-1.68c0,0-.03-.57-1.55-.26Z"/></svg>