<?xml version="1.0" encoding="UTF-8"?><svg id="a" xmlns="http://www.w3.org/2000/svg" width="32" height="32" viewBox="0 0 32 32"><defs><style>.b{fill:#983b1f;}.b,.c,.d,.e,.f,.g{stroke-width:0px;}.c{fill:#3d8130;}.e{fill:none;}.f{fill:#fff;}.g{fill:#c82727;}</style></defs><circle class="c" cx="15.92" cy="16" r="14.96"/><path class="e" d="m10.15,24.95l.22.04c-.17-.05-.37-.11-.56-.17l.34.13Z"/><polygon class="c" points="22.58 14 22.58 14 22.58 14 22.58 14"/><path class="c" d="m22.74,16.71h0s0,0,0,0h0Z"/><polygon class="c" points="21.62 20.87 21.62 20.87 21.62 20.87 21.62 20.87"/><path class="c" d="m9.85,12.9l-.67,1.31-.7,1.37-.49,1.28-.33,1.37-.2,1.49-.12,1.29-.14.85.14.66.24.57.44.78,1.03.64.76.3c.19.06.38.12.56.17l.9.16,1.29.06h1.06c.12,0,1.2-.06,1.21-.06h0s0,0,0,0l1.37.02,1.32-.16.57-.24.39-.47.02-.62c-.02-.05-.1-.25-.12-.32-.02-.05-.28-.36-.52-.63h0c-.1-.16-.28-.42-.28-.51s.11-.34.13-.39v-.03s.56-.16.56-.16l.36.26.33-.18.37-.37.64-.48.58-.33.46-.09.61.41-.04-.04.25-.22.23-.39v-.4l-.04-.12-.3.24-.53.15h0s-.82-.02-.82-.02l-1.19.12-.38.04-.29-.04-.76-.1-.86-.16-1.4-.23h0s-1.34-.56-1.34-.56l-1.17-.68-.72-.49-.07-.35.09-.32.28-.21.67.15,1.45.45c.71.15,1.8.36,1.87.37h0s.18.02.52.08c.37.06.89.15.99.15.18,0,1.58.08,1.66.08.07,0,1.21-.02,1.33-.02.08,0,.52-.14.78-.24l.4-.48.38-.66c.02-.19,0-.38-.07-.56-.09-.25-.27-.45-.49-.6-.12.22-.27.36-.44.43-.07.02-.14.04-.21.04-.1,0-.21-.02-.3-.07l.06-.1c.13.06.28.07.41.03.16-.06.29-.2.4-.41-.13.05-.27.07-.41.07-.09,0-.17,0-.26-.03v-.06s.03-.06.03-.06c0,0,.45.11.8-.15.24-.18.38-.51.4-.96l-.39.46-.47.21c-.21.05-.91.23-.98.23-.02,0-.11-.01-.34-.05-.28-.05-.71-.11-.82-.11-.2,0-.48-.21-.51-.24l-.03-.03.22-.65.61-.69.65-.46h.8s.76.08.76.08l.33.37.16.24v-.63l-.63-.23c-.07,0-.7-.1-.85-.1s-.71.09-.8.1l-.81.53-.06-.1.83-.54h.01s.66-.11.83-.11.84.1.87.1h.01s.69.25.69.25l.07.04v-.04s-.31-.28-.31-.28l-.58-.28-.7-.06-.81.14-.32.14-.05-.11.34-.15.83-.14.74.06h.03s-.22-.33-.22-.33l-.62-.55h0s-2.43.06-2.43.06c0,0-.32.04-.68.09l.34.5.18.31-.09.31-.11-.03.08-.26-.15-.26-.37-.53h.02c-.45.04-.94.1-.97.1-.05,0-2.01.15-2.08.15-.16,0-.32-.03-.48-.06-.03-.02-1.33-.49-1.38-.52-.05-.03-.5-.47-.5-.47l-.89-.28-.78.96-.86,1.25Zm9.48,2.68c.11.05.22.11.33.18l.67.08.38-.08.02.12-.4.08-.46-.05c.2.15.38.31.54.5.12.13.22.28.31.43l-.1.06c-.1-.18-.23-.34-.37-.49-.19-.2-.41-.38-.64-.53h0s-.34-.19-.34-.19l.05-.11Zm-6.68-2.19l.53-.51.46-.38.66-.13.7-.02h.74s.62.02.62.02l1.25.02.39.24.48.44.28.34.13.69-.12.02-.12-.66-.25-.31-.46-.42-.35-.21-.97-.02.42.23c.23.12.62.33.66.42.03.05.34.35.62.62h0s.44.57.44.57l.06.47-.12.02-.06-.44-.42-.54c-.15-.14-.6-.56-.64-.65-.03-.05-.34-.22-.61-.36l-.62-.34-.6-.02h-.74s-.69.02-.69.02l-.62.12-.44.36-.5.48-.05.32.11.09.26-.14.43-.54.78-.3,1.02-.1.86.08,1.12.58.46.27.44.59.2.65.3.19v.26l-.27.25-.49.21-.21.17-.22.36-.11.18h-.01c-.15.09-.4.22-.48.22-.05,0-.38.16-.67.3h0s-.54.17-.66.19l-.02-.12c.11-.02.59-.17.64-.18.29-.14.66-.31.72-.31.14-.05.28-.12.41-.19l.05-.09.27-.44.06-.05c-.19-.02-.43-.05-.5-.08-.03-.01-.2-.03-1.12-.03-.23,0-.77-.12-.84-.15-.06-.02-.61-.18-.61-.18h-.01s-.01-.01-.01-.01c0,0-.51-.49-.89-.71l.06-.1c.36.21.83.64.9.72.09.03.55.16.6.18.07.02.59.14.8.14,1.1,0,1.15.03,1.18.05.04.02.3.05.53.07v.04s.09-.07.09-.07l.49-.2.22-.2v-.15l-.15-.1v.02s-.5.19-.5.19l-.7.08s-.19,0-.36,0c-.2,0-.41,0-.48-.03-.09-.03-.68-.16-.98-.22h0s0,0,0,0c-.37-.2-.82-.45-.86-.51-.03-.03-.25-.15-.45-.25h0s-.65-.38-.65-.38l-.09.02v-.08s-.22-.12-.22-.12l-.31.17-.22-.19.07-.42Zm.27,2.8l.03.12-.4.1-.2.05v-.05s-.03-.07-.03-.07l.59-.14Zm.25.55l-.03.12c-.13-.03-.27-.03-.41,0-.22.04-.55.17-.86.53l-.09-.08c.65-.76,1.36-.58,1.39-.57h0Z"/><path class="c" d="m13.98,13.8s.87-.1.97-.1c.04,0,.16.01.31.02.21.02.55.05.6.04.08-.02.9-.1.99-.1l.49-.03-.1-.06-1.09-.57-.82-.08-.99.1-.74.28-.38.47.24.14.53-.1Z"/><path class="c" d="m16.86,13.77c-.36.03-.92.09-.97.1-.05.01-.24,0-.64-.04-.14-.01-.26-.02-.3-.02-.08,0-.71.07-.95.1l-.39.07.53.31c.16.08.44.22.49.28.04.04.45.27.81.47.09.02.86.19.98.23.08.03.53.03.8.02l.69-.08.42-.16h-.02s-.21-.68-.21-.68l-.42-.56-.25-.15v.06s-.57.04-.57.04Z"/><path class="c" d="m22.26,13.73l-.29-.33-.71-.08h-.76l-.61.44-.58.66-.19.54c.1.07.28.19.4.19s.52.06.84.11c.15.02.3.05.33.05.05,0,.6-.14.94-.22l.43-.2.34-.4-.03-.19-1.07-.43-1.36-.04v-.12s1.39.04,1.39.04l1.15.47.05.3s0-.03,0-.05v-.33s-.27-.41-.27-.41Z"/><path class="c" d="m20.98,20.58l-.4.08-.56.32-.63.47-.18.18.4.28.03.22-.27.27-.08-.08.23-.23v-.11s-.39-.26-.39-.26l-.11.11-.23.13-.07.31.33.29.47-.02c.09-.06.23-.16.3-.16.07-.04.14-.09.21-.14.16-.12.22-.16.27-.17.14-.07.27-.15.4-.24h.02s.58.05.58.05l.2.2-.04.04c-.12.13-.26.31-.27.35,0,.03,0,.06-.02.08l.13-.07.63-.45.07.1-.64.45-.3.16s-.02.03-.03.04l-.02-.02-.46.25-.32.45-.11.27.23.32.25.29.3.04.27-.06v-.06s.3-.48.3-.48l.57-.55.08.09-.57.55-.27.43.02.32.29.2.38.04.22-.07-.04-.06.03-.03s.33-.37.39-.43c.05-.05.31-.35.45-.51l.09.08s-.39.45-.45.52c-.05.05-.27.3-.36.39l.2.3h.35l.3-.13.24-.36.33-.35.09.08-.32.34-.25.38-.36.16h-.43l-.18-.27-.28.08-.44-.04-.36-.25v-.24s-.29.06-.29.06l-.36-.05-.28-.32-.41-.25-.43-.47-.11-.74.12-.02.09.63.51-.4.55-.53.31-.44-.15-.02c-.17.11-.37.24-.44.24-.07.04-.14.09-.21.14-.16.12-.23.17-.27.17-.09.04-.17.09-.25.15h-.01s-.55.03-.55.03l-.41-.37.06-.28-.04.02-.38-.27-.44.13c-.05.1-.08.21-.11.32,0,.05.14.26.25.43.16.18.52.59.54.68.02.06.09.25.12.32h0s-.02.81-.02.81l.23.34c.12.07.98.57,1.08.63.07.04.69.22,1.07.32l1.28.12,1.03-.14.88-.4.48-.46-.11-.41-.59-1.1-.43-.65-.73-.81-1.09-.6-.17-.35-.54-.37Z"/><path class="b" d="m21.91,18.21h-.02c-.12.05-.71.25-.84.25s-1.32.02-1.33.02h0s0,0,0,0c-.01,0-1.48-.08-1.66-.08-.12,0-.59-.08-1.01-.15-.23-.04-.48-.08-.51-.08-.08,0-1.6-.31-1.9-.37h0s-1.45-.45-1.45-.45l-.61-.14-.21.16-.07.25.05.27.67.46,1.16.67,1.32.55,1.39.22.86.16,1.04.14,1.55-.16h0s.81.02.81.02l.49-.14.41-.33.34-.52.07-.24-.11-.27c-.49.44-.55.46-.57.47l-.5.12-1.4.06h0s-1.46-.08-1.46-.08l-1.45-.27-1.17.02h0s-1.21-.31-1.21-.31l-1.08-.37-.57-.35.06-.1.57.35,1.06.37,1.2.3,1.17-.02h0s1.45.27,1.45.27l1.45.08,1.38-.06.49-.12s.19-.14.54-.45c.05-.04.08-.07.09-.08l.45-.61.15-.28c-.03-.1-.04-.2-.06-.29-.06-.09-.12-.18-.2-.25,0,.05,0,.11-.01.16h0s-.4.7-.4.7l-.42.5Z"/><path class="d" d="m24.64,24.41l-.6-1.11-.43-.66-.75-.83-1.08-.59-.16-.34-.03.02s.1.36.17.4,1.01.52,1.05.54c.05.02.86.99.86.99l.65,1.14.39.88s-.5.52-.53.52c-.03,0-1,.48-1.03.48s-.97.11-1.02.09c-.05-.02-1.21-.12-1.3-.12-.09,0-1.16-.43-1.16-.43l-.92-.55-.26-.41-.37.42s-.52.26-.59.26-1.35.17-1.45.17h-2.57s-2.54-.05-2.64-.1c-.03-.02-.24-.08-.51-.17l-.22-.04-.34-.13c-.41-.13-.79-.24-.79-.24l-1.05-.68s-.44-.76-.45-.8c-.02-.04-.28-.68-.28-.71s-.09-.54-.09-.54l.18-1.16.08-1.22.2-1.33s.33-1.34.34-1.4c0-.06.55-1.38.55-1.38l.57-1.02.75-1.55.82-1.16.8-.95.05.02h0s-.09-.08-.09-.08l-.78.96-.86,1.25-.68,1.32-.7,1.37-.49,1.3-.33,1.38-.21,1.5-.12,1.29-.14.87.15.69.25.59.46.82,1.06.66,1.12.44,1.14.21,1.3.06h1.07c.12,0,1.14-.06,1.21-.06l1.37.02h0s1.34-.16,1.34-.16h0s.62-.26.62-.26l.32-.38.26.39h.01s.98.58,1.09.64c.11.06,1,.31,1.1.33l1.31.13,1.05-.14h0s.91-.41.91-.41h0s.55-.53.55-.53l-.13-.49Z"/><path class="d" d="m10.63,11.64l-.82,1.16-.75,1.55-.57,1.02s-.54,1.32-.55,1.38c0,.06-.34,1.4-.34,1.4l-.2,1.33-.08,1.22-.18,1.16s.09.51.09.54.27.67.28.71c.02.04.45.8.45.8l1.05.68s.38.11.79.24l-.76-.3-1.03-.64-.44-.78-.24-.57-.14-.66.14-.85.12-1.29.2-1.49.33-1.37.49-1.28.7-1.37.67-1.31.86-1.25.78-.96-.05-.02-.8.95Z"/><path class="d" d="m21.01,20.46l-.46.09-.58.33-.64.48-.37.37-.33.18-.36-.26-.55.16v.03s-.14.3-.14.39.17.35.28.51h0c.24.27.5.58.52.64.02.08.1.27.12.32l-.02.62-.39.47-.57.24-1.32.16-1.37-.02h0s0,0,0,0c-.01,0-1.09.06-1.21.06h-1.06s-1.29-.06-1.29-.06l-.9-.16c.26.08.47.15.51.17.11.05,2.64.1,2.64.1h2.57c.1,0,1.38-.17,1.45-.17s.59-.26.59-.26l.37-.42.26.41.92.55s1.07.42,1.16.43c.09,0,1.25.11,1.3.12.05.02.99-.09,1.02-.09s1-.47,1.03-.48c.03,0,.53-.52.53-.52l-.39-.88-.65-1.14s-.81-.97-.86-.99c-.05-.02-.98-.5-1.05-.54s-.17-.4-.17-.4l.03-.02h0s-.61-.42-.61-.42Zm.68.84l1.09.6.73.81.43.65.59,1.1.11.41-.48.46-.88.4-1.03.14-1.28-.12c-.38-.1-1-.28-1.07-.32-.1-.06-.96-.56-1.08-.63l-.23-.34.02-.79h0c-.03-.08-.1-.27-.12-.33-.02-.09-.39-.5-.54-.68-.12-.17-.25-.39-.25-.43.02-.11.06-.22.11-.32l.44-.13.38.27.04-.02-.06.28.41.37.55-.02h.01c.08-.07.16-.12.25-.16.05,0,.11-.04.27-.17.07-.05.13-.1.21-.14.07,0,.27-.13.44-.24l.15.02-.31.44-.55.53-.51.4-.09-.63-.12.02.11.74.43.47.41.25.28.32.36.05.27-.06v.24s.38.25.38.25l.44.04.28-.08.18.27h.43l.36-.16.25-.38.32-.34-.09-.08-.33.35-.24.36-.3.13h-.35l-.2-.3c.08-.09.31-.34.36-.39.06-.06.44-.5.45-.52l-.09-.08c-.13.16-.4.46-.45.51-.06.06-.38.42-.39.43l-.03.03.04.06-.22.07-.38-.04-.29-.2-.02-.32.27-.43.57-.55-.08-.09-.57.55-.31.48v.06s-.27.06-.27.06l-.3-.04-.25-.29-.23-.32.11-.27.32-.45.46-.25.02.02s.02-.02.03-.04l.3-.16.64-.45-.07-.1-.63.45-.13.07s.02-.05.02-.08c0-.04.15-.22.27-.35l.04-.04-.2-.2-.58-.07h-.02c-.13.1-.26.18-.4.25-.05,0-.11.05-.27.17-.06.05-.13.1-.21.14-.07,0-.21.1-.3.16l-.47.02-.33-.29.07-.31.23-.13.11-.11.37.26v.11s-.21.23-.21.23l.08.08.27-.27-.03-.22-.4-.28.18-.18.63-.47.56-.32.4-.08.54.37.17.35Zm-1.6,2.61l-.16-.1-.35-.39.53-.42.56-.54.36-.5.2.02.09.09c-.11.12-.26.31-.26.39-.02.07-.05.13-.09.19l-.51.28-.34.48-.14.35.1.14Z"/><path class="d" d="m21.52,12.01l.3.39s.15.23.2.25c.05.02.54.3.54.3l.2.22-.04.13-.15-.05.02.75h.05v-.68l.13.08.04-.28-.38-.33-.41-.2h.02s-.32-.51-.32-.51l-.64-.56-.07.08h.06s.45.41.45.41Z"/><path class="d" d="m22.51,15.08s-.22.43-.24.45c-.02.02-.22.1-.22.1l.02.11c.09.06.17.13.25.21,0,.02.14.27.24.47h.1c-.1-.29-.3-.54-.56-.7.01-.03.02-.05.03-.08.02-.01.04-.03.06-.04.28-.22.43-.59.45-1.12v-.37l-.07-.1.02.57-.09.51Z"/><path class="d" d="m21.62,12.16l.22.35h-.03s-.74-.08-.74-.08l-.83.14-.34.15.05.11.32-.14.81-.14.7.06.58.28.32.28v.04s-.07-.04-.07-.04l-.69-.25h-.01s-.7-.11-.87-.11-.8.1-.83.1h-.01s-.83.54-.83.54l.06.1.81-.53c.09-.01.65-.1.8-.1s.78.09.85.1l.63.23v.63l-.16-.24-.33-.37-.76-.08h-.8s-.65.46-.65.46l-.61.69-.22.65.03.03s.31.24.51.24c.11,0,.54.07.82.11.23.04.32.05.34.05.06,0,.76-.17.98-.23l.47-.21.39-.46c-.02.45-.16.77-.4.96-.34.26-.79.15-.8.15v.06s-.03.06-.03.06c.09.02.17.03.26.03.14,0,.28-.02.41-.07-.11.22-.24.36-.4.41-.14.05-.28.04-.41-.03l-.06.1c.09.05.2.07.3.07.07,0,.14-.01.21-.04.18-.06.32-.21.44-.43.22.14.4.35.49.6h.02c-.1-.2-.24-.45-.24-.47-.08-.07-.16-.14-.25-.21l-.02-.11s.19-.08.22-.1c.02-.02.24-.45.24-.45l.09-.51-.02-.57h0s0,0,0,0l-.02-.75.15.05.04-.13-.2-.22s-.48-.28-.54-.3c-.05-.02-.2-.25-.2-.25l-.3-.39-.45-.41h-.06s0,0,0,0l.62.55Zm.91,2.36l-.05-.3-1.15-.47-1.38-.04v.12s1.36.04,1.36.04l1.07.43.03.19-.34.4-.43.2c-.34.08-.89.22-.94.22-.02,0-.18-.03-.33-.05-.32-.05-.72-.11-.84-.11s-.31-.12-.4-.19l.19-.54.58-.66.61-.44h.76l.71.08.29.33.27.41v.33s0,.03,0,.05h0Z"/><polygon class="d" points="18.8 20.23 19.18 20.19 18.51 20.19 18.8 20.23"/><path class="d" d="m22.12,20.21s-.35.58-.35.58l-.15.08.04.04.27-.23.26-.43v-.06h-.05s0,.02,0,.02Z"/><path class="d" d="m22.12,20.21s0-.02,0-.02h-.07v.02l-.23.39-.25.22.04.04h0s.15-.08.15-.08c0,0,.34-.55.35-.58Z"/><path class="d" d="m22.69,16.63l.05.07c-.01-.1-.03-.2-.06-.3h-.1c.06.12.12.22.12.22Z"/><path class="d" d="m23.06,17.29s-.08.26-.09.3c-.02.04-.57.79-.57.79l.13.26s.02.18,0,.22c-.02.03-.5.78-.5.78l.08.21s.02.26.01.35h.05v-.4l-.07-.17h0s.05-.04.05-.04l.36-.55.09-.3-.14-.35s.02-.02.02-.02l.46-.62.18-.33v-.02c-.03-.1-.05-.19-.07-.29,0-.02,0-.08-.3-.41l-.02.02.18.26s.15.29.15.32Z"/><path class="d" d="m22.57,16.41h-.02c.07.18.09.37.07.56l-.38.66-.4.48c-.27.09-.7.24-.78.24-.12,0-1.26.02-1.33.02-.09,0-1.48-.08-1.66-.08-.11,0-.62-.08-.99-.15-.35-.06-.49-.08-.52-.08h0c-.07,0-1.16-.22-1.87-.37l-1.45-.45-.67-.15-.28.21-.09.32.07.35.72.49,1.17.68,1.34.56h0s1.4.23,1.4.23l.86.16.76.1h.66l1.19-.12.82.02h0s.53-.15.53-.15l.3-.24.04.12v.38h.07c0-.08-.01-.35-.01-.35l-.08-.21s.48-.75.5-.78c.02-.03,0-.22,0-.22l-.13-.26s.55-.75.57-.79c.02-.04.08-.27.09-.3,0-.03-.15-.32-.15-.32l-.18-.26h0s0,0,0,0l-.05-.07s-.05-.1-.12-.22Zm.16.59c0-.05.01-.11.01-.16.07.08.14.16.2.25.01.1.03.2.06.29l-.15.28-.45.61s-.04.04-.09.08c-.34.31-.5.44-.54.45l-.49.12-1.38.06-1.45-.08-1.45-.27h0s-1.17.02-1.17.02l-1.2-.3-1.06-.37-.57-.35-.06.1.57.35,1.08.37,1.21.31h0s1.17-.02,1.17-.02l1.45.27,1.46.08h0s1.4-.06,1.4-.06l.5-.12s.08-.02.57-.47l.11.27-.07.24-.34.52-.41.33-.49.14-.81-.02h0s-1.55.16-1.55.16l-1.04-.14-.86-.16-1.39-.22-1.32-.55-1.16-.67-.67-.46-.05-.27.07-.25.21-.16.61.14,1.45.45h0c.3.06,1.81.37,1.9.37.03,0,.27.04.51.08.42.07.89.15,1.01.15.18,0,1.64.08,1.66.08h0s0,0,0,0c.01,0,1.21-.02,1.33-.02s.72-.21.84-.25h.02s.42-.51.42-.51l.4-.69h0Z"/><path class="d" d="m12.74,16.87c.13-.03.27-.03.41,0l.03-.12s-.74-.19-1.39.57l.09.08c.31-.37.64-.49.86-.53Z"/><polygon class="d" points="12.56 16.41 12.95 16.31 12.92 16.2 12.33 16.34 12.35 16.41 12.56 16.41"/><polygon class="d" points="12.36 16.46 12.56 16.41 12.35 16.41 12.36 16.46"/><path class="d" d="m19.62,15.88c.23.15.45.33.64.53h.16c-.16-.18-.35-.35-.54-.5l.46.05.4-.08-.02-.12-.38.08-.67-.08c-.11-.07-.22-.13-.33-.18l-.05.11.34.19h0Z"/><path class="d" d="m20.64,16.9l.1-.06c-.09-.15-.19-.3-.31-.43h-.16c.14.15.27.31.37.49Z"/><path class="d" d="m13.12,13.84l.2.12v.08s.1-.02.1-.02l.65.38h0c.19.09.42.21.45.25.04.06.49.31.86.51h0s0,0,0,0c.3.06.88.19.98.22.07.02.29.03.48.03.17,0,.33,0,.36,0l.7-.08.51-.19v-.02s.14.1.14.1v.15l-.22.2-.49.2-.09.07v-.04c-.22-.02-.48-.05-.52-.07-.03-.02-.08-.05-1.18-.05-.21,0-.74-.12-.8-.14-.06-.02-.52-.15-.6-.18-.08-.07-.54-.5-.9-.72l-.06.1c.38.22.89.7.89.71h.01s.01.01.01.01c0,0,.55.16.61.18.07.02.61.15.84.15.91,0,1.09.02,1.12.03.06.04.31.07.5.08l-.06.05-.27.44h.14l.22-.36.21-.17.49-.21.27-.25v-.26l-.3-.19-.2-.65-.44-.59-.46-.27-1.12-.58-.86-.08-1.02.1-.78.3-.43.54-.26.14-.11-.09.05-.32.5-.48.44-.36.62-.12.69-.02h.74s.6.02.6.02l.62.34c.27.14.58.32.61.36.04.08.5.51.64.65l.42.54.06.44.12-.02-.06-.47-.44-.57h0c-.28-.27-.6-.58-.62-.63-.04-.09-.43-.3-.66-.42l-.42-.23.97.02.35.21.46.42.25.31.12.66.12-.02-.13-.69-.28-.34-.48-.44-.39-.24-1.25-.02-.62-.02h-.74s-.7.02-.7.02l-.66.13-.46.38-.53.51-.07.42.22.19.31-.17Zm4.55-.02l.42.56.21.67h.02s-.42.17-.42.17l-.69.08c-.27,0-.71,0-.8-.02-.12-.04-.89-.21-.98-.23-.37-.2-.77-.43-.81-.47-.05-.07-.33-.21-.49-.28l-.53-.31.39-.07c.24-.03.87-.1.95-.1.03,0,.16.01.3.02.4.04.59.05.64.04.06-.01.61-.07.97-.1l.57-.04v-.06s.24.15.24.15Zm-4.08-.53l.74-.28.99-.1.82.08,1.09.57.1.06-.49.03c-.09,0-.91.08-.99.1-.05.01-.39-.02-.6-.04-.15-.01-.27-.02-.31-.02-.1,0-.94.1-.97.1l-.53.1-.24-.14.38-.47Z"/><path class="d" d="m17.3,16.5c-.13.07-.27.14-.41.19-.06,0-.42.17-.72.31-.05.02-.53.16-.64.18l.02.12c.13-.02.64-.18.66-.19h0c.29-.14.62-.3.67-.3.07,0,.33-.13.48-.21h.01s.11-.19.11-.19h-.14l-.05.09Z"/><path class="d" d="m17.87,11.71l-.08.05s.07,0,.1-.01l-.03-.04Z"/><path class="d" d="m18.14,12.31l.15.26-.08.26.11.03.09-.31-.18-.31-.34-.5s-.07,0-.1.01h-.02s.37.55.37.55Z"/><path class="g" d="m21.71,12.17l.52-.05s1.3.39,1.35.44.71.34.71.34l.39.03.05-.35-.28-.41-.83-.61-.94-.45-.59-.2-.21-2.98-.5-.74-.74-.61-.96-.47-.99-.02-1.87.24-1.72.34-.1-.29c-.13-.03-.27-.06-.4-.08-.1,0-1.01.28-1.01.28l-.56.29-.12.34-.79.44-.64.81-.37.77s-.19.77-.19.83.1.47.17.51.59.17.59.17l.68.34.99.57,1.23.4s1.16-.08,1.28-.08,1.87-.19,1.97-.19,2.02-.15,2.07-.15,1.2-.02,1.2-.02l.45.4.17.17Z"/><polyline class="d" points="21.26 13.83 21.41 14.15 21.5 14.52 21.46 14.75 21.26 15.26 20.63 15.36 19.61 15.18 19.49 14.83 19.53 14.5 19.64 14 19.9 13.7 20.07 13.8 21.19 13.83"/><path class="d" d="m16.63,13.78l.18.35.02.43-.09.38-.2.31-.32.02-1.23-.37-.49-.43.06-.28.17-.26.23-.18.87.03s.78.06.81,0Z"/><path class="d" d="m24.57,12.22l-.48-.42-.69-.46-1.13-.41-.16-.06-.05-.98c-.06-.48-.14-1.21-.14-1.26,0-.08-.04-.68-.04-.7h0s-.34-.63-.34-.63l-.56-.59-.87-.5-.72-.21h-.99l-.97.12c-.39.07-1.01.16-1.08.16-.11,0-.92.19-1.02.21l-.29.07.05-.02-.09-.18-.3-.12-.44.04-.71.17-.54.34-.11.28.07.03-.3.08h0s-.63.4-.63.4l-.44.5-.4.66-.32,1.09v.39l.2.36,1.28.45.43.39.95.43.84.21,1.57-.1,2.27-.25,1.62-.12,1.35.02,1.42.2,1.12.53.05-.11-1.14-.54-1.44-.21-1.36-.02-1.62.12-2.27.25-1.55.1-.81-.2-.93-.42-.43-.39-1.26-.45-.17-.29v-.34l.3-1.05.38-.64.42-.48.6-.38,2.65-.69c.35-.08.92-.2.99-.2.1,0,1-.15,1.09-.16l.96-.12h.97l.68.2.85.48.54.56.32.58c.01.22.04.62.04.68,0,.08.13,1.16.14,1.27l.04.92-.69-.26-1.36-.14-1.03-.1-1.01.08-1.17.12-1.36.31-1.02.24-.68.04-.87-.17.45.32.36.21.83.21.81.02h0s.72-.08.72-.08l1.03-.16,1-.16,1.12-.08.78-.04.94.06,1.27.16,1.64.31.28.19.46.4.13.3-.03.22-.24.02-.48-.22-.88-.35-.69-.21-.61.06v.12s.59-.06.59-.06l.66.2.88.35.51.23.37-.02.05-.35-.16-.36Zm-11.57-5.11l.09-.22.49-.31.68-.16.41-.04.23.09.07.13-1.97.51Zm9.11,4.17v.06s0-.06,0-.06l-1.27-.16-.95-.06-.78.04-1.13.08-1.01.16-1.02.16-.71.08-.79-.02-.81-.2-.34-.2h0s.36.07.36.07l.7-.04,1.03-.25,1.35-.31,1.16-.12,1-.08,1.02.1,1.35.14.96.37,1.12.41.13.09-1.36-.26Z"/><ellipse class="f" cx="16.15" cy="14.45" rx=".37" ry=".31" transform="translate(-3.45 5.21) rotate(-16.57)"/><circle class="f" cx="15.29" cy="14.56" r=".15"/><circle class="f" cx="15.2" cy="14.09" r=".15"/><circle class="f" cx="20.15" cy="14.76" r=".14"/><circle class="f" cx="20.13" cy="14.23" r=".15"/><circle class="f" cx="20.96" cy="14.53" r=".28"/></svg>