<?xml version="1.0" encoding="UTF-8"?><svg id="Layer_1" xmlns="http://www.w3.org/2000/svg" width="32" height="32" xmlns:xlink="http://www.w3.org/1999/xlink" viewBox="0 0 32 32"><defs><style>.cls-1{fill:#fff;}.cls-2{fill:url(#linear-gradient);}</style><linearGradient id="linear-gradient" x1="29.82" y1="30.03" x2="4.28" y2="4" gradientTransform="translate(0 32) scale(1 -1)" gradientUnits="userSpaceOnUse"><stop offset="0" stop-color="#00ffa3"/><stop offset="1" stop-color="#dc1fff"/></linearGradient></defs><circle class="cls-2" cx="16.05" cy="16" r="15.7"/><path class="cls-1" d="m8.62,20.55c.13-.13.31-.21.51-.21h17.58c.32,0,.48.39.26.61l-3.48,3.48c-.13.13-.31.21-.51.21H5.4c-.32,0-.48-.39-.26-.61l3.48-3.48Z"/><path class="cls-1" d="m8.62,7.58c.14-.13.32-.21.51-.21h17.58c.32,0,.48.39.26.61l-3.48,3.48c-.13.13-.31.21-.51.21H5.4c-.32,0-.48-.39-.26-.61,0,0,3.48-3.48,3.48-3.48Z"/><path class="cls-1" d="m23.49,14.02c-.13-.13-.31-.21-.51-.21H5.4c-.32,0-.48.39-.26.61l3.48,3.48c.13.13.31.21.51.21h17.58c.32,0,.48-.39.26-.61l-3.48-3.48Z"/></svg>