<?xml version="1.0" encoding="UTF-8"?><svg id="a" xmlns="http://www.w3.org/2000/svg" width="35.08" height="23.95" viewBox="0 0 35.08 23.95"><defs><style>.cls-1{fill:#fff;}</style></defs><path class="cls-1" d="M22.46,6.76c-2.31,0-4.38,1.18-4.38,3.37,0,2.51,3.67,2.68,3.67,3.95,0,.53-.61,1.01-1.66,1.01-1.49,0-2.61-.66-2.61-.66l-.48,2.21s1.28.57,2.99.57c2.52,0,4.51-1.24,4.51-3.47,0-2.66-3.68-2.82-3.68-4,0-.42.5-.87,1.55-.87,1.18,0,2.15.48,2.15.48l.47-2.13s-1.05-.44-2.53-.44h0ZM1.32,6.92l-.06.32s.97.17,1.84.53c1.13.41,1.21.64,1.4,1.37l2.07,7.88h2.78l4.28-10.1h-2.77l-2.74,6.87-1.12-5.82c-.1-.66-.63-1.05-1.25-1.05H1.32ZM14.74,6.92l-2.16,10.1h2.64l2.16-10.1h-2.64ZM29.46,6.92c-.64,0-.97.33-1.22.92l-3.86,9.17h2.77l.54-1.53h3.37l.32,1.53h2.45l-2.13-10.1h-2.24ZM29.81,9.65l.82,3.79h-2.2s1.38-3.79,1.38-3.79Z"/></svg>