<?xml version="1.0" encoding="UTF-8"?><svg id="Layer_1" xmlns="http://www.w3.org/2000/svg" width="35" height="35" viewBox="0 0 35 35"><defs><style>.cls-1{fill:#fff;stroke-width:0px;}</style></defs><path class="cls-1" d="m11.19,24.49h3.83v-13.96h-3.4l-4.8,3.91,1.96,2.4,1.59-1.31c.35-.31.64-.61.88-.9-.04.74-.05,1.57-.05,2.46v7.39Z"/><path class="cls-1" d="m17.27,18.74h0c-.39.58-.58,1.27-.58,2.08,0,1.25.44,2.2,1.31,2.87.87.67,2.13,1,3.77,1s2.86-.34,3.77-1.02c.9-.68,1.35-1.64,1.35-2.89,0-.68-.21-1.3-.64-1.89-.42-.59-1.15-1.17-2.19-1.76.84-.41,1.45-.9,1.83-1.46.39-.56.58-1.21.58-1.94,0-1.09-.41-1.93-1.23-2.53-.82-.59-1.96-.89-3.43-.89s-2.62.3-3.46.9c-.84.59-1.25,1.43-1.25,2.5,0,.68.17,1.31.51,1.88.34.57.88,1.1,1.62,1.6-.92.47-1.57.98-1.96,1.56Zm3.69-5.41c.22-.19.5-.28.82-.28s.58.09.81.28c.22.19.33.43.33.74,0,.27-.08.52-.25.74s-.48.45-.93.71c-.74-.42-1.12-.91-1.12-1.45,0-.3.11-.55.33-.73Zm-.45,6.38c.25-.3.65-.61,1.22-.9.63.38,1.07.71,1.31,1.02.25.3.37.61.37.92,0,.82-.56,1.23-1.68,1.23-.5,0-.88-.12-1.17-.36-.28-.24-.42-.56-.42-.95,0-.34.12-.66.37-.96Z"/><polygon class="cls-1" points="31.77 16.52 31.77 14.01 29.93 14.01 29.93 16.52 27.39 16.52 27.39 18.35 29.93 18.35 29.93 20.82 31.77 20.82 31.77 18.35 34.31 18.35 34.31 16.52 31.77 16.52"/><path class="cls-1" d="m28.19,25.17l-.03-.03c-.78,1.08-1.73,2.03-2.79,2.83l.03.03c-2.18,1.63-4.89,2.59-7.82,2.59-7.23,0-13.09-5.86-13.09-13.09,0-2.94.97-5.66,2.61-7.85l.03.03c.8-1.07,1.76-2,2.84-2.79l-.03-.03c2.15-1.55,4.79-2.46,7.64-2.46,5.54,0,10.26,3.43,12.18,8.28h4.02C31.71,5.69,25.24.6,17.58.6,8.25.61.69,8.17.69,17.5s7.56,16.9,16.9,16.9c7.66,0,14.13-5.09,16.2-12.08h-4.02c-.41,1.02-.93,1.98-1.57,2.85Z"/></svg>