<?xml version="1.0" encoding="UTF-8"?><svg id="Layer_3" xmlns="http://www.w3.org/2000/svg" width="32" height="32" viewBox="0 0 32 32"><defs><style>.cls-1{fill:#fff;}.cls-2{fill:#2775ca;}</style></defs><path class="cls-2" d="m16,31.71c8.71,0,15.71-7,15.71-15.71S24.71.29,16,.29.29,7.29.29,16s7,15.71,15.71,15.71Z"/><path class="cls-1" d="m20.32,18.48c0-2.29-1.37-3.08-4.12-3.41-1.97-.26-2.36-.78-2.36-1.7s.66-1.51,1.97-1.51c1.18,0,1.83.39,2.16,1.37.07.2.26.33.46.33h1.04c.26,0,.46-.2.46-.46v-.07c-.26-1.44-1.44-2.55-2.94-2.68v-1.57c0-.26-.2-.46-.53-.53h-.98c-.26,0-.46.2-.53.53v1.51c-1.97.26-3.21,1.57-3.21,3.21,0,2.16,1.31,3.01,4.06,3.34,1.83.33,2.43.72,2.43,1.77s-.91,1.77-2.16,1.77c-1.7,0-2.29-.72-2.48-1.7-.07-.26-.26-.39-.46-.39h-1.11c-.26,0-.46.2-.46.46v.07c.26,1.64,1.31,2.81,3.47,3.14v1.57c0,.26.2.46.53.53h.98c.26,0,.46-.2.53-.53v-1.57c1.97-.33,3.27-1.7,3.27-3.47h0Z"/><path class="cls-1" d="m12.66,25.36c-5.11-1.83-7.72-7.53-5.82-12.57.98-2.75,3.14-4.84,5.82-5.82.26-.13.39-.33.39-.66v-.91c0-.26-.13-.46-.39-.53-.07,0-.2,0-.26.07-6.22,1.97-9.62,8.57-7.66,14.8,1.18,3.67,4,6.48,7.66,7.66.26.13.53,0,.59-.26.07-.07.07-.13.07-.26v-.91c0-.2-.2-.46-.39-.59Zm6.94-20.42c-.26-.13-.53,0-.59.26-.07.07-.07.13-.07.26v.91c0,.26.2.53.39.66,5.11,1.83,7.72,7.53,5.82,12.57-.98,2.75-3.14,4.84-5.82,5.82-.26.13-.39.33-.39.66v.91c0,.26.13.46.39.53.07,0,.2,0,.26-.07,6.22-1.97,9.62-8.57,7.66-14.8-1.18-3.73-4.06-6.55-7.66-7.72h0Z"/></svg>