<svg width="43" height="14" viewBox="0 0 43 14" fill="none" xmlns="http://www.w3.org/2000/svg">
<g clip-path="url(#clip0_1842_6431)">
<path d="M9.47416 10.5758H11.4359V5.08258H9.47416V10.5758ZM12.1148 1.34455H10.7928V2.61376H12.1148V1.34455ZM4.7 1.96196H2.80398V3.55502H4.56481C5.68212 3.55502 6.32522 4.07499 6.32522 5.05024C6.32522 6.02548 5.68212 6.5778 4.56481 6.5778H2.80398V3.58901H0.842285V10.5758H2.80398V8.17045H4.66631C6.93462 8.17045 8.25535 7.00032 8.25535 4.98514C8.25535 3.09975 6.96874 1.96196 4.7 1.96196ZM13.4355 0.0786133H9.47416V3.8797H13.4355V0.0786133ZM12.792 3.23117H10.1514V0.694386H12.792V3.23117ZM24.3037 1.96196H22.5092V3.55502H24.2018C25.3191 3.55502 25.9626 4.07499 25.9626 5.05024C25.9626 6.02548 25.3191 6.5778 24.2018 6.5778H22.5092V3.58901H20.5475V10.5758H22.5092V8.17045H24.3037C26.572 8.17045 27.8923 7.00032 27.8923 4.98514C27.8923 3.09975 26.572 1.96196 24.3037 1.96196ZM40.7922 3.97755L39.0991 8.07178L37.4061 3.97755H35.3749L38.0833 10.5758L37.0338 13.0786H39.0991L42.8234 3.97755H40.7922ZM31.9893 3.9448C30.8042 3.9448 29.8898 4.20478 28.874 4.6924L29.4839 5.99273C30.1948 5.60255 30.9057 5.40766 31.5488 5.40766C32.4968 5.40766 32.971 5.79784 32.971 6.51311V6.6433H31.0737C29.3807 6.6433 28.4668 7.39091 28.4668 8.62614C28.4668 9.82861 29.347 10.6733 30.8366 10.6733C31.7846 10.6733 32.4618 10.3486 33.0034 9.79586V10.5107H34.9335V6.22037C34.8691 4.8226 33.8175 3.9448 31.9893 3.9448ZM33.1407 8.36656C32.9377 8.91888 32.362 9.37415 31.5492 9.37415C30.8724 9.37415 30.466 9.04907 30.466 8.52911C30.466 8.00914 30.8383 7.7815 31.5833 7.7815H33.1407V8.36656ZM16.4484 9.1457C15.5004 9.1457 14.8236 8.43043 14.8236 7.35775C14.8236 6.31781 15.5004 5.60255 16.4484 5.60255C17.1256 5.60255 17.6335 5.86253 18.0062 6.31781L19.3283 5.40766C18.7189 4.52986 17.6693 4.00989 16.3486 4.00989C14.2833 3.97755 12.8615 5.34257 12.8615 7.35775C12.8615 9.37293 14.2833 10.706 16.3486 10.706C17.7708 10.706 18.8221 10.1533 19.3961 9.24314L18.0416 8.36575C17.7013 8.88571 17.1597 9.1457 16.4484 9.1457Z" fill="#21C25E"/>
</g>
<defs>
<clipPath id="clip0_1842_6431">
<rect width="42" height="13" fill="white" transform="translate(0.833008 0.0786133)"/>
</clipPath>
</defs>
</svg>
