<?xml version="1.0" encoding="UTF-8"?><svg id="Layer_2" xmlns="http://www.w3.org/2000/svg" width="32" height="32" viewBox="0 0 32 32"><defs><style>.cls-1{fill:#fff;}.cls-2{fill:#f0b90b;}</style></defs><path class="cls-2" d="m15.82,1.06c8.25,0,14.94,6.69,14.94,14.94s-6.69,14.94-14.94,14.94S.88,24.25.88,16,7.57,1.06,15.82,1.06"/><polygon class="cls-1" points="11.95 14.1 14.21 11.84 14.69 11.37 15.82 10.23 19.67 14.1 21.91 11.84 15.82 5.74 9.71 11.84 11.95 14.1"/><rect class="cls-1" x="14.23" y="14.1" width="3.19" height="3.19" transform="translate(-6.46 15.79) rotate(-45)"/><polygon class="cls-1" points="19.67 17.31 15.82 21.16 14.47 19.81 14.22 19.56 11.95 17.31 9.71 19.55 15.82 25.65 21.91 19.55 19.67 17.31"/><rect class="cls-1" x="6.51" y="14.1" width="3.19" height="3.19" transform="translate(-8.72 10.33) rotate(-45)"/><rect class="cls-1" x="21.93" y="14.11" width="3.19" height="3.19" transform="translate(-4.21 21.23) rotate(-45)"/></svg>