<svg width="33" height="32" viewBox="0 0 33 32" xmlns="http://www.w3.org/2000/svg">
    <g transform="translate(.88)" fill="none" fill-rule="evenodd">
        <circle fill="#FFF" fill-rule="nonzero" cx="16" cy="16" r="16"/>
        <g fill="#50AF95">
            <path d="M17.443 14.232v1.938c-.085.014-.523.042-1.415.042-.735 0-1.273-.028-1.457-.042v-1.938c-2.857.127-4.98.622-4.98 1.216s2.123 1.09 4.98 1.217c.184.014.708.028 1.443.028.934 0 1.344-.028 1.429-.028 2.843-.127 4.965-.623 4.965-1.217 0-.594-2.122-1.089-4.965-1.216z"/>
            <path d="m27.36 15.76-4.145-8.715a.174.174 0 0 0-.156-.099H8.941a.174.174 0 0 0-.156.1L4.64 15.76a.175.175 0 0 0 .043.198L15.9 26.695c.07.057.17.057.24 0L27.36 15.958a.196.196 0 0 0 0-.198zm-9.917 1.372v5.56h-2.872v-5.56c-3.225-.156-5.659-.792-5.659-1.556s2.434-1.4 5.66-1.557v-1.74h-3.976V9.634h10.808v2.645H17.43v1.74c3.225.156 5.644.793 5.644 1.557.015.764-2.419 1.4-5.63 1.556z"/>
        </g>
    </g>
</svg>
