<?xml version="1.0" encoding="UTF-8"?><svg id="a" xmlns="http://www.w3.org/2000/svg" width="35.08" height="23.95" viewBox="0 0 35.08 23.95"><defs><style>.cls-1{fill:#ffc44d;}.cls-1,.cls-2,.cls-3{fill-rule:evenodd;}.cls-2{fill:#ff884d;}.cls-3{fill:#ee4d4d;}</style></defs><path class="cls-3" d="M13,4.31c-4.23,0-7.66,3.43-7.66,7.66s3.43,7.66,7.66,7.66,7.66-3.43,7.66-7.66-3.43-7.66-7.66-7.66Z"/><path class="cls-1" d="M22.08,4.31c-4.23,0-7.66,3.43-7.66,7.66s3.43,7.66,7.66,7.66,7.66-3.43,7.66-7.66-3.43-7.66-7.66-7.66Z"/><path class="cls-2" d="M17.54,5.8c-1.89,1.39-3.13,3.64-3.13,6.18s1.23,4.79,3.13,6.18c1.89-1.39,3.13-3.64,3.13-6.18s-1.23-4.79-3.13-6.18Z"/></svg>